<svg width="239" height="40" viewBox="0 0 239 40" fill="none" xmlns="http://www.w3.org/2000/svg">
<path d="M64.1387 32V5.81818H71.2466V16.0455H80.6557V5.81818H87.7637V32H80.6557V21.7727H71.2466V32H64.1387ZM95.5364 39.3636C94.7267 39.3636 93.9554 39.2997 93.2225 39.1719C92.4895 39.0526 91.8461 38.8864 91.2921 38.6733L92.8262 33.6619C93.4057 33.8665 93.9341 33.9986 94.4114 34.0582C94.8972 34.1179 95.3105 34.0838 95.6515 33.956C96.0009 33.8281 96.2523 33.5852 96.4057 33.2273L96.5591 32.8693L89.6557 12.3636H97.0194L100.19 25.9659H100.394L103.616 12.3636H111.031L103.872 33.6364C103.514 34.7188 102.994 35.6903 102.312 36.5511C101.639 37.4205 100.752 38.1065 99.6529 38.6094C98.5534 39.1122 97.1813 39.3636 95.5364 39.3636ZM119.548 32.2557C118.15 32.2557 116.863 31.8892 115.687 31.1562C114.52 30.4233 113.582 29.3111 112.875 27.8196C112.176 26.3281 111.827 24.4489 111.827 22.1818C111.827 19.8125 112.193 17.8864 112.926 16.4034C113.667 14.9205 114.622 13.8338 115.79 13.1435C116.966 12.4531 118.202 12.108 119.497 12.108C120.469 12.108 121.321 12.2784 122.054 12.6193C122.787 12.9517 123.4 13.3991 123.895 13.9616C124.389 14.5156 124.764 15.125 125.02 15.7898H125.122V5.81818H132.179V32H125.173V28.7784H125.02C124.747 29.4432 124.355 30.0398 123.844 30.5682C123.341 31.0881 122.727 31.5014 122.003 31.8082C121.287 32.1065 120.469 32.2557 119.548 32.2557ZM122.156 26.8352C122.804 26.8352 123.358 26.6477 123.818 26.2727C124.287 25.8892 124.645 25.3523 124.892 24.6619C125.148 23.9631 125.275 23.1364 125.275 22.1818C125.275 21.2102 125.148 20.3793 124.892 19.6889C124.645 18.9901 124.287 18.4574 123.818 18.0909C123.358 17.7159 122.804 17.5284 122.156 17.5284C121.508 17.5284 120.954 17.7159 120.494 18.0909C120.042 18.4574 119.693 18.9901 119.446 19.6889C119.207 20.3793 119.088 21.2102 119.088 22.1818C119.088 23.1534 119.207 23.9886 119.446 24.6875C119.693 25.3778 120.042 25.9105 120.494 26.2855C120.954 26.652 121.508 26.8352 122.156 26.8352ZM135.643 32V12.3636H142.496V16.0966H142.7C143.058 14.7159 143.625 13.706 144.4 13.0668C145.184 12.4276 146.101 12.108 147.149 12.108C147.456 12.108 147.758 12.1335 148.057 12.1847C148.363 12.2273 148.657 12.2912 148.939 12.3764V18.3977C148.589 18.2784 148.159 18.1889 147.648 18.1293C147.136 18.0696 146.697 18.0398 146.331 18.0398C145.64 18.0398 145.018 18.1974 144.464 18.5128C143.919 18.8196 143.488 19.2543 143.173 19.8168C142.858 20.3707 142.7 21.0227 142.7 21.7727V32H135.643ZM159.588 32.358C157.457 32.358 155.633 31.9361 154.116 31.0923C152.599 30.2401 151.436 29.0554 150.626 27.5384C149.817 26.0128 149.412 24.2443 149.412 22.233C149.412 20.2216 149.817 18.4574 150.626 16.9403C151.436 15.4148 152.599 14.2301 154.116 13.3864C155.633 12.5341 157.457 12.108 159.588 12.108C161.719 12.108 163.542 12.5341 165.059 13.3864C166.577 14.2301 167.74 15.4148 168.55 16.9403C169.359 18.4574 169.764 20.2216 169.764 22.233C169.764 24.2443 169.359 26.0128 168.55 27.5384C167.74 29.0554 166.577 30.2401 165.059 31.0923C163.542 31.9361 161.719 32.358 159.588 32.358ZM159.639 27.142C160.236 27.142 160.751 26.9418 161.186 26.5412C161.621 26.1406 161.957 25.5696 162.196 24.8281C162.434 24.0866 162.554 23.2045 162.554 22.1818C162.554 21.1506 162.434 20.2685 162.196 19.5355C161.957 18.794 161.621 18.223 161.186 17.8224C160.751 17.4219 160.236 17.2216 159.639 17.2216C159.008 17.2216 158.467 17.4219 158.015 17.8224C157.564 18.223 157.219 18.794 156.98 19.5355C156.741 20.2685 156.622 21.1506 156.622 22.1818C156.622 23.2045 156.741 24.0866 156.98 24.8281C157.219 25.5696 157.564 26.1406 158.015 26.5412C158.467 26.9418 159.008 27.142 159.639 27.142ZM186.639 14C186.571 13.1477 186.251 12.483 185.68 12.0057C185.118 11.5284 184.261 11.2898 183.111 11.2898C182.378 11.2898 181.777 11.3793 181.308 11.5582C180.848 11.7287 180.507 11.9631 180.285 12.2614C180.064 12.5597 179.949 12.9006 179.94 13.2841C179.923 13.5994 179.979 13.8849 180.106 14.1406C180.243 14.3878 180.456 14.6136 180.746 14.8182C181.035 15.0142 181.406 15.1932 181.858 15.3551C182.309 15.517 182.846 15.6619 183.469 15.7898L185.616 16.25C187.065 16.5568 188.305 16.9616 189.336 17.4645C190.368 17.9673 191.211 18.5597 191.868 19.2415C192.524 19.9148 193.006 20.6733 193.312 21.517C193.628 22.3608 193.79 23.2812 193.798 24.2784C193.79 26 193.359 27.4574 192.507 28.6506C191.655 29.8438 190.436 30.7514 188.851 31.3736C187.274 31.9957 185.378 32.3068 183.162 32.3068C180.886 32.3068 178.9 31.9702 177.204 31.2969C175.517 30.6236 174.204 29.5881 173.267 28.1903C172.338 26.7841 171.869 24.9858 171.861 22.7955H178.611C178.653 23.5966 178.854 24.2699 179.211 24.8153C179.569 25.3608 180.072 25.7741 180.72 26.0554C181.376 26.3366 182.156 26.4773 183.059 26.4773C183.818 26.4773 184.453 26.3835 184.964 26.196C185.476 26.0085 185.863 25.7486 186.128 25.4162C186.392 25.0838 186.528 24.7045 186.537 24.2784C186.528 23.8778 186.396 23.5284 186.14 23.2301C185.893 22.9233 185.484 22.6506 184.913 22.4119C184.342 22.1648 183.571 21.9347 182.599 21.7216L179.991 21.1591C177.673 20.6562 175.845 19.8168 174.507 18.6406C173.177 17.456 172.517 15.8409 172.525 13.7955C172.517 12.1335 172.96 10.6804 173.855 9.43608C174.758 8.18324 176.007 7.20739 177.601 6.50852C179.203 5.80966 181.04 5.46023 183.111 5.46023C185.224 5.46023 187.052 5.81392 188.595 6.52131C190.138 7.22869 191.327 8.22585 192.162 9.51278C193.006 10.7912 193.432 12.2869 193.44 14H186.639ZM206.013 32.358C203.917 32.358 202.11 31.9574 200.593 31.1562C199.084 30.3466 197.921 29.1875 197.103 27.679C196.293 26.1619 195.888 24.3466 195.888 22.233C195.888 20.2045 196.297 18.4318 197.116 16.9148C197.934 15.3977 199.089 14.2173 200.58 13.3736C202.072 12.5298 203.831 12.108 205.86 12.108C207.343 12.108 208.685 12.3381 209.887 12.7983C211.089 13.2585 212.116 13.9276 212.968 14.8054C213.82 15.6747 214.476 16.7315 214.937 17.9759C215.397 19.2202 215.627 20.6222 215.627 22.1818V23.8182H198.087V19.9318H209.133C209.124 19.3693 208.979 18.875 208.698 18.4489C208.425 18.0142 208.055 17.6776 207.586 17.4389C207.126 17.1918 206.601 17.0682 206.013 17.0682C205.442 17.0682 204.918 17.1918 204.441 17.4389C203.964 17.6776 203.58 18.0099 203.29 18.4361C203.009 18.8622 202.86 19.3608 202.843 19.9318V24.125C202.843 24.7557 202.975 25.3182 203.239 25.8125C203.503 26.3068 203.883 26.6946 204.377 26.9759C204.871 27.2571 205.468 27.3977 206.167 27.3977C206.653 27.3977 207.096 27.3295 207.496 27.1932C207.905 27.0568 208.255 26.8608 208.545 26.6051C208.834 26.3409 209.047 26.0256 209.184 25.6591H215.627C215.405 27.0227 214.881 28.2074 214.055 29.2131C213.228 30.2102 212.133 30.9858 210.769 31.5398C209.414 32.0852 207.829 32.358 206.013 32.358ZM227.967 32.358C225.836 32.358 224.012 31.9361 222.495 31.0923C220.978 30.2401 219.815 29.0554 219.005 27.5384C218.195 26.0128 217.791 24.2443 217.791 22.233C217.791 20.2216 218.195 18.4574 219.005 16.9403C219.815 15.4148 220.978 14.2301 222.495 13.3864C224.012 12.5341 225.836 12.108 227.967 12.108C229.893 12.108 231.559 12.4574 232.965 13.1562C234.38 13.8466 235.475 14.8267 236.251 16.0966C237.026 17.358 237.419 18.8409 237.427 20.5455H230.882C230.788 19.5142 230.49 18.7301 229.987 18.1932C229.492 17.6477 228.853 17.375 228.069 17.375C227.455 17.375 226.919 17.554 226.458 17.9119C225.998 18.2614 225.64 18.794 225.384 19.5099C225.129 20.2173 225.001 21.108 225.001 22.1818C225.001 23.2557 225.129 24.1506 225.384 24.8665C225.64 25.5739 225.998 26.1065 226.458 26.4645C226.919 26.8139 227.455 26.9886 228.069 26.9886C228.589 26.9886 229.049 26.8693 229.45 26.6307C229.85 26.3835 230.174 26.0256 230.421 25.5568C230.677 25.0795 230.83 24.5 230.882 23.8182H237.427C237.401 25.5483 237.005 27.0568 236.238 28.3438C235.471 29.6222 234.384 30.6108 232.978 31.3097C231.58 32.0085 229.91 32.358 227.967 32.358Z" fill="#263238"/>
<path d="M20.5092 1L30 17H11L20.5092 1Z" fill="#4CAF4F"/>
<path d="M31.5092 19L41 35H22L31.5092 19Z" fill="#4CAF4F"/>
<path d="M27.6768 19.3411L19.0047 34.346L10.3326 19.3411H27.6768ZM30 18H8L19.0047 37L30 18Z" fill="#263238"/>
<path d="M42.5092 35L52 19H33L42.5092 35Z" fill="#4CAF4F"/>
<path d="M9.50921 17L19 1H0L9.50921 17Z" fill="#4CAF4F"/>
<path d="M49.7824 16.7295L41.5044 2.51435L33.2266 16.7295H49.7824ZM52 18H31L41.5044 0L52 18Z" fill="#263238"/>
</svg>
