<svg width="730" height="400" viewBox="0 0 730 400" fill="none" xmlns="http://www.w3.org/2000/svg">
<g clip-path="url(#clip0_20_222)">
<path d="M46.2389 334.068L43.9618 345.665C43.7903 346.551 43.6109 347.454 43.416 348.348C41.5128 347.948 39.5396 348.06 37.6922 348.673C39.1579 350.799 40.4713 353.029 41.6224 355.346C40.1876 359.835 38.0821 363.983 34.5574 366.983C32.2033 368.942 29.3916 370.253 26.3935 370.788C23.3954 371.323 20.312 371.065 17.4407 370.039L17.542 369.579C13.7522 362.115 15.8109 352.702 20.5209 345.807C22.9232 342.406 25.7695 339.351 28.9818 336.727C32.1634 334.036 35.6023 331.621 39.0101 329.239C39.7755 328.704 40.6804 328.414 41.6092 328.404C42.538 328.395 43.4486 328.666 44.2246 329.185C45.0005 329.703 45.6066 330.444 45.9654 331.314C46.3242 332.184 46.4194 333.143 46.2389 334.068Z" fill="#4CAF4F"/>
<path d="M18.2514 397.943C17.293 390.856 16.3073 383.678 16.9795 376.515C17.5768 370.153 19.4882 363.94 23.3809 358.845C25.4471 356.146 27.9611 353.833 30.8101 352.011C31.5533 351.536 32.2364 352.731 31.4971 353.204C26.5678 356.366 22.7551 361.036 20.6087 366.54C18.2381 372.661 17.8576 379.334 18.2693 385.835C18.5165 389.767 19.0398 393.672 19.5677 397.575C19.6102 397.751 19.5846 397.938 19.4962 398.096C19.4078 398.254 19.2632 398.372 19.092 398.425C18.9179 398.473 18.7323 398.449 18.5755 398.358C18.4187 398.268 18.3033 398.118 18.2545 397.942L18.2514 397.943Z" fill="#4CAF4F"/>
<path d="M26.4763 42.4574C59.881 41.8678 93.2893 41.7831 126.701 42.2033C160.108 42.626 193.504 43.556 226.889 44.9931C245.622 45.7996 264.348 46.7657 283.067 47.8916C284.57 47.9819 284.565 45.6068 283.067 45.5167C249.715 43.5133 216.339 42.0142 182.939 41.0195C149.544 40.0274 116.139 39.5426 82.7243 39.5651C63.9739 39.5777 45.2246 39.7502 26.4763 40.0826C24.9725 40.1091 24.9678 42.484 26.4763 42.4574Z" fill="#E6E6E6"/>
<path d="M259.276 27.5665L273.882 26.4629C275.375 26.3502 275.387 23.9744 273.882 24.0881L259.276 25.1917C257.783 25.3044 257.771 27.6802 259.276 27.5665Z" fill="#E6E6E6"/>
<path d="M259.276 41.8156L273.882 40.712C275.375 40.5992 275.387 38.2235 273.882 38.3371L259.276 39.4407C257.783 39.5535 257.771 41.9293 259.276 41.8156Z" fill="#E6E6E6"/>
<path d="M258.177 35.3084L278.944 37.2237C280.443 37.3619 280.434 34.9862 278.944 34.8488L258.177 32.9335C256.678 32.7953 256.687 35.171 258.177 35.3084Z" fill="#E6E6E6"/>
<path d="M35.1209 24.3727C34.1052 24.3664 33.11 24.6636 32.2595 25.2275C31.409 25.7913 30.7409 26.5968 30.3383 27.5436C29.8879 28.4702 29.7489 29.521 29.9425 30.5354C30.136 31.5498 30.6516 32.4719 31.4102 33.1607C32.1234 33.7767 32.9788 34.199 33.8964 34.3883C34.814 34.5775 35.7639 34.5275 36.6573 34.2428C37.571 33.9189 38.3633 33.3154 38.9252 32.5155C39.4871 31.7156 39.7909 30.7585 39.7948 29.776C39.8356 28.6861 39.5447 27.6098 38.9617 26.6935C38.3787 25.7773 37.5319 25.0655 36.5363 24.6551C36.2372 24.5726 35.9181 24.6135 35.6486 24.7688C35.3791 24.9242 35.181 25.1814 35.0975 25.4844C35.0237 25.7878 35.0673 26.1083 35.2192 26.38C35.3712 26.6517 35.62 26.854 35.9144 26.9451C36.1183 27.025 35.7282 26.8434 35.9185 26.9486C35.9968 26.9919 36.0765 27.031 36.1534 27.0772C36.2187 27.1165 36.2813 27.1595 36.3448 27.2016C36.5632 27.3463 36.2382 27.0954 36.3778 27.2255C36.4988 27.3383 36.6188 27.4483 36.7288 27.5728C36.7704 27.6198 36.9333 27.7506 36.8067 27.6592C36.7098 27.5892 36.7693 27.6057 36.8067 27.6619C36.835 27.7045 36.865 27.746 36.8929 27.7889C36.9841 27.929 37.067 28.0745 37.1412 28.2245C37.1584 28.2593 37.1741 28.2948 37.1916 28.3294C37.2243 28.3941 37.2718 28.4111 37.1948 28.33C37.1212 28.2525 37.1681 28.2578 37.1944 28.3324C37.2117 28.3814 37.2306 28.4298 37.2474 28.479C37.3023 28.6392 37.3483 28.8023 37.3854 28.9677C37.4025 29.0441 37.4163 29.121 37.431 29.1979C37.4833 29.4706 37.4234 29.0284 37.436 29.2309C37.4466 29.4 37.4589 29.5673 37.456 29.7371C37.4547 29.8148 37.4513 29.8924 37.446 29.97C37.4433 30.0086 37.4391 30.0472 37.4365 30.0858C37.4244 30.2722 37.424 30.0178 37.4497 30.0003C37.3963 30.1585 37.3608 30.3224 37.344 30.4888C37.3231 30.5626 37.2982 30.6348 37.2749 30.7078C37.1935 30.9626 37.3513 30.5689 37.2645 30.7431C37.1931 30.8926 37.1134 31.0379 37.0256 31.1782C36.9875 31.237 36.8437 31.3697 36.9613 31.2773C37.0888 31.1771 36.8944 31.3497 36.8529 31.3941C36.7996 31.4512 36.7444 31.5062 36.687 31.5593C36.6503 31.5957 36.6116 31.6298 36.571 31.6617C36.5636 31.6579 36.7664 31.5241 36.6571 31.5949C36.5181 31.6849 36.3865 31.7812 36.24 31.8595C36.223 31.8686 36.0357 31.9567 36.0365 31.9598C36.0284 31.9278 36.2772 31.8709 36.1065 31.9269C36.0706 31.9387 36.0354 31.9529 35.9997 31.9651C35.8442 32.0182 35.6854 32.0612 35.5245 32.0936C35.4877 32.101 35.4487 32.1048 35.4124 32.1144C35.2915 32.1461 35.5279 32.0957 35.535 32.0999C35.4457 32.096 35.3562 32.104 35.2689 32.1238C35.1029 32.1335 34.9365 32.1334 34.7706 32.1238C34.7321 32.1215 34.6938 32.1176 34.6555 32.1154C34.5663 32.1101 34.5009 32.0449 34.6195 32.1157C34.711 32.1703 34.7034 32.1305 34.6224 32.1153C34.5844 32.1081 34.5463 32.1022 34.5084 32.0949C34.3442 32.0637 34.1817 32.0233 34.0218 31.9739C33.9358 31.9473 33.8515 31.9164 33.7666 31.8863C33.7297 31.8754 33.6936 31.8613 33.659 31.8442C33.6585 31.8344 33.8778 31.9506 33.762 31.8872C33.6159 31.8073 33.4648 31.7403 33.3221 31.6529C33.246 31.6063 33.1729 31.5556 33.0988 31.5057C33.0663 31.4858 33.0353 31.4633 33.0063 31.4384C33.0087 31.4284 33.1876 31.5966 33.0937 31.5058C32.9749 31.3909 32.8479 31.288 32.7354 31.1657C32.7097 31.1377 32.6853 31.1084 32.6597 31.0804L32.6349 31.0516C32.5715 30.9729 32.5703 30.9733 32.6313 31.0527C32.6933 31.0712 32.6905 31.1403 32.6317 31.0506C32.6107 31.0186 32.5885 30.9876 32.5675 30.9556C32.4725 30.8182 32.3915 30.6713 32.3258 30.5173C32.3315 30.5128 32.4271 30.803 32.354 30.584C32.3401 30.5426 32.3246 30.5019 32.3111 30.4604C32.2842 30.3782 32.2605 30.295 32.2401 30.2109C32.2199 30.1276 32.2095 30.0417 32.1891 29.9587C32.1547 29.8188 32.2092 30.069 32.203 30.0628C32.1835 30.0432 32.1918 29.922 32.1903 29.8929C32.181 29.7066 32.2019 29.5258 32.2051 29.3406C32.2077 29.1971 32.1935 29.4524 32.1905 29.4449C32.1912 29.4019 32.1987 29.3593 32.2127 29.3188C32.2339 29.2211 32.2536 29.1235 32.2795 29.0269C32.3092 28.9163 32.3434 28.8071 32.382 28.6992C32.3965 28.6588 32.4141 28.6191 32.4275 28.5784C32.4767 28.4292 32.33 28.7584 32.4109 28.624C32.5222 28.439 32.6051 28.2388 32.7233 28.0561C32.7513 28.0128 32.9215 27.7716 32.8311 27.8934C32.7412 28.0147 32.9236 27.7847 32.9581 27.7457C33.1016 27.5835 33.2703 27.4504 33.4189 27.2951C33.5068 27.2031 33.3575 27.3403 33.3487 27.3467C33.3947 27.3133 33.4398 27.2787 33.4864 27.2461C33.5676 27.1893 33.6508 27.1356 33.736 27.085C33.8319 27.0278 33.9404 26.9853 34.0334 26.9249C34.1433 26.8535 33.9494 26.9562 33.9459 26.9584C33.9961 26.9331 34.0486 26.9128 34.1026 26.8978C34.1932 26.8652 34.5871 26.6926 34.6698 26.7466C34.666 26.7441 34.3706 26.7707 34.6094 26.7551C34.6658 26.7514 34.722 26.7459 34.7786 26.7435C34.8929 26.7387 35.0068 26.7416 35.121 26.7476C35.4306 26.7455 35.7269 26.6198 35.9458 26.3975C36.1648 26.1753 36.2886 25.8745 36.2907 25.5602C36.284 25.2474 36.1587 24.9492 35.9407 24.728C35.7228 24.5067 35.4291 24.3794 35.1209 24.3727Z" fill="#E6E6E6"/>
<path d="M51.4969 24.3727C50.4811 24.3664 49.486 24.6636 48.6355 25.2275C47.785 25.7913 47.1168 26.5968 46.7142 27.5436C46.2639 28.4702 46.1248 29.521 46.3184 30.5354C46.512 31.5498 47.0275 32.4719 47.7862 33.1607C48.4994 33.7767 49.3548 34.199 50.2724 34.3883C51.19 34.5775 52.1399 34.5275 53.0333 34.2428C53.947 33.9189 54.7393 33.3154 55.3012 32.5155C55.863 31.7156 56.1668 30.7585 56.1708 29.776C56.2116 28.6861 55.9207 27.6098 55.3377 26.6935C54.7547 25.7773 53.9078 25.0655 52.9123 24.6551C52.6132 24.5726 52.2941 24.6135 52.0246 24.7688C51.755 24.9242 51.5569 25.1814 51.4734 25.4844C51.3997 25.7878 51.4432 26.1083 51.5952 26.38C51.7472 26.6517 51.996 26.854 52.2904 26.9451C52.4943 27.025 52.1042 26.8434 52.2945 26.9486C52.3728 26.9919 52.4525 27.031 52.5294 27.0772C52.5947 27.1165 52.6573 27.1595 52.7208 27.2016C52.9392 27.3463 52.6142 27.0954 52.7538 27.2255C52.8748 27.3383 52.9947 27.4483 53.1047 27.5728C53.1463 27.6198 53.3093 27.7506 53.1827 27.6592C53.0858 27.5892 53.1453 27.6057 53.1826 27.6619C53.211 27.7045 53.2409 27.746 53.2689 27.7889C53.3601 27.929 53.443 28.0745 53.5172 28.2245C53.5344 28.2593 53.5501 28.2948 53.5676 28.3294C53.6003 28.3941 53.6478 28.4111 53.5708 28.33C53.4972 28.2525 53.5441 28.2578 53.5704 28.3324C53.5877 28.3814 53.6066 28.4298 53.6234 28.479C53.6783 28.6392 53.7243 28.8023 53.7613 28.9677C53.7785 29.0441 53.7923 29.121 53.807 29.1979C53.8592 29.4706 53.7994 29.0284 53.812 29.2309C53.8226 29.4 53.8349 29.5673 53.832 29.7371C53.8306 29.8148 53.8273 29.8924 53.822 29.97C53.8193 30.0086 53.815 30.0472 53.8125 30.0858C53.8004 30.2722 53.8 30.0178 53.8257 30.0003C53.7722 30.1585 53.7368 30.3224 53.72 30.4888C53.699 30.5626 53.6741 30.6348 53.6508 30.7078C53.5695 30.9626 53.7273 30.5689 53.6405 30.7431C53.5691 30.8926 53.4893 31.0379 53.4015 31.1782C53.3634 31.237 53.2197 31.3697 53.3372 31.2773C53.4648 31.1771 53.2704 31.3497 53.2289 31.3941C53.1756 31.4512 53.1203 31.5062 53.063 31.5593C53.0263 31.5957 52.9876 31.6298 52.947 31.6617C52.9396 31.6579 53.1424 31.5241 53.0331 31.5949C52.8941 31.6849 52.7625 31.7812 52.616 31.8595C52.599 31.8686 52.4117 31.9567 52.4125 31.9598C52.4044 31.9278 52.6532 31.8709 52.4824 31.9269C52.4466 31.9387 52.4114 31.9529 52.3756 31.9651C52.2201 32.0182 52.0614 32.0612 51.9005 32.0936C51.8636 32.101 51.8247 32.1048 51.7884 32.1144C51.6675 32.1461 51.9039 32.0957 51.911 32.0999C51.8216 32.096 51.7321 32.104 51.6448 32.1238C51.4789 32.1335 51.3125 32.1334 51.1465 32.1238C51.1081 32.1215 51.0698 32.1176 51.0314 32.1154C50.9423 32.1101 50.8769 32.0449 50.9955 32.1157C51.087 32.1703 51.0794 32.1305 50.9983 32.1153C50.9604 32.1081 50.9223 32.1022 50.8844 32.0949C50.7201 32.0637 50.5577 32.0233 50.3978 31.9739C50.3118 31.9473 50.2275 31.9164 50.1426 31.8863C50.1056 31.8754 50.0696 31.8613 50.035 31.8442C50.0345 31.8344 50.2537 31.9506 50.138 31.8872C49.9919 31.8073 49.8408 31.7403 49.6981 31.6529C49.622 31.6063 49.5488 31.5556 49.4748 31.5057C49.4422 31.4858 49.4113 31.4633 49.3822 31.4384C49.3847 31.4284 49.5636 31.5966 49.4697 31.5058C49.3509 31.3909 49.2239 31.288 49.1114 31.1657C49.0856 31.1377 49.0613 31.1084 49.0357 31.0804L49.0108 31.0516C48.9475 30.9729 48.9463 30.9733 49.0073 31.0527C49.0693 31.0712 49.0665 31.1403 49.0077 31.0506C48.9867 31.0186 48.9644 30.9876 48.9435 30.9556C48.8485 30.8182 48.7675 30.6713 48.7017 30.5173C48.7074 30.5128 48.8031 30.803 48.7299 30.584C48.7161 30.5426 48.7006 30.5019 48.687 30.4604C48.6602 30.3782 48.6365 30.295 48.6161 30.2109C48.5959 30.1276 48.5855 30.0417 48.5651 29.9587C48.5307 29.8188 48.5852 30.069 48.579 30.0628C48.5595 30.0432 48.5678 29.922 48.5663 29.8929C48.5569 29.7066 48.5779 29.5258 48.5811 29.3406C48.5837 29.1971 48.5694 29.4524 48.5665 29.4449C48.5672 29.4019 48.5747 29.3593 48.5887 29.3188C48.6099 29.2211 48.6296 29.1235 48.6555 29.0269C48.6852 28.9163 48.7193 28.8071 48.758 28.6992C48.7724 28.6588 48.7901 28.6191 48.8035 28.5784C48.8527 28.4292 48.706 28.7584 48.7869 28.624C48.8982 28.439 48.9811 28.2388 49.0992 28.0561C49.1272 28.0128 49.2975 27.7716 49.2071 27.8934C49.1171 28.0147 49.2996 27.7847 49.3341 27.7457C49.4776 27.5835 49.6463 27.4504 49.7949 27.2951C49.8828 27.2031 49.7335 27.3403 49.7247 27.3467C49.7707 27.3133 49.8158 27.2787 49.8623 27.2461C49.9435 27.1893 50.0267 27.1356 50.1119 27.085C50.2079 27.0278 50.3164 26.9853 50.4094 26.9249C50.5193 26.8535 50.3254 26.9562 50.3219 26.9584C50.3721 26.9331 50.4246 26.9128 50.4786 26.8978C50.5692 26.8652 50.9631 26.6926 51.0457 26.7466C51.042 26.7441 50.7466 26.7707 50.9854 26.7551C51.0418 26.7514 51.098 26.7459 51.1545 26.7435C51.2688 26.7387 51.3828 26.7416 51.4969 26.7476C51.8065 26.7455 52.1029 26.6198 52.3218 26.3975C52.5407 26.1753 52.6646 25.8745 52.6666 25.5602C52.66 25.2474 52.5347 24.9492 52.3167 24.728C52.0988 24.5067 51.8051 24.3794 51.4969 24.3727Z" fill="#E6E6E6"/>
<path d="M67.8724 24.3727C66.8566 24.3664 65.8615 24.6636 65.011 25.2275C64.1605 25.7913 63.4923 26.5968 63.0897 27.5436C62.6394 28.4702 62.5003 29.521 62.6939 30.5354C62.8875 31.5498 63.403 32.4719 64.1617 33.1607C64.8749 33.7767 65.7302 34.199 66.6479 34.3883C67.5655 34.5775 68.5154 34.5275 69.4088 34.2428C70.3225 33.9189 71.1148 33.3154 71.6767 32.5155C72.2385 31.7156 72.5423 30.7585 72.5463 29.776C72.5871 28.6861 72.2962 27.6098 71.7132 26.6935C71.1302 25.7773 70.2833 25.0655 69.2878 24.6551C68.9887 24.5726 68.6696 24.6135 68.4001 24.7688C68.1305 24.9242 67.9324 25.1814 67.8489 25.4844C67.7751 25.7878 67.8187 26.1083 67.9707 26.38C68.1227 26.6517 68.3715 26.854 68.6659 26.9451C68.8698 27.025 68.4797 26.8434 68.67 26.9486C68.7483 26.9919 68.828 27.031 68.9049 27.0772C68.9702 27.1165 69.0327 27.1595 69.0963 27.2016C69.3146 27.3463 68.9897 27.0954 69.1293 27.2255C69.2503 27.3383 69.3702 27.4483 69.4802 27.5728C69.5218 27.6198 69.6848 27.7506 69.5582 27.6592C69.4613 27.5892 69.5208 27.6057 69.5581 27.6619C69.5865 27.7045 69.6164 27.746 69.6444 27.7889C69.7356 27.929 69.8185 28.0745 69.8927 28.2245C69.9099 28.2593 69.9256 28.2948 69.9431 28.3294C69.9758 28.3941 70.0233 28.4111 69.9463 28.33C69.8727 28.2525 69.9196 28.2578 69.9459 28.3324C69.9632 28.3814 69.9821 28.4298 69.9989 28.479C70.0538 28.6392 70.0998 28.8023 70.1368 28.9677C70.154 29.0441 70.1678 29.121 70.1825 29.1979C70.2347 29.4706 70.1749 29.0284 70.1875 29.2309C70.1981 29.4 70.2103 29.5673 70.2074 29.7371C70.2061 29.8148 70.2028 29.8924 70.1975 29.97C70.1948 30.0086 70.1905 30.0472 70.188 30.0858C70.1759 30.2722 70.1755 30.0178 70.2012 30.0003C70.1477 30.1585 70.1122 30.3224 70.0955 30.4888C70.0745 30.5626 70.0496 30.6348 70.0263 30.7078C69.9449 30.9626 70.1027 30.5689 70.016 30.7431C69.9446 30.8926 69.8648 31.0379 69.777 31.1782C69.7389 31.237 69.5952 31.3697 69.7127 31.2773C69.8402 31.1771 69.6459 31.3497 69.6044 31.3941C69.5511 31.4512 69.4958 31.5062 69.4385 31.5593C69.4018 31.5957 69.3631 31.6298 69.3225 31.6617C69.315 31.6579 69.5179 31.5241 69.4086 31.5949C69.2696 31.6849 69.138 31.7812 68.9915 31.8595C68.9745 31.8686 68.7872 31.9567 68.788 31.9598C68.7799 31.9278 69.0287 31.8709 68.8579 31.9269C68.822 31.9387 68.7869 31.9529 68.7511 31.9651C68.5956 32.0182 68.4369 32.0612 68.276 32.0936C68.2391 32.101 68.2002 32.1048 68.1639 32.1144C68.0429 32.1461 68.2794 32.0957 68.2865 32.0999C68.1971 32.096 68.1076 32.104 68.0203 32.1238C67.8544 32.1335 67.688 32.1334 67.522 32.1238C67.4836 32.1215 67.4453 32.1176 67.4069 32.1154C67.3178 32.1101 67.2524 32.0449 67.371 32.1157C67.4625 32.1703 67.4549 32.1305 67.3738 32.1153C67.3359 32.1081 67.2978 32.1022 67.2599 32.0949C67.0956 32.0637 66.9332 32.0233 66.7733 31.9739C66.6873 31.9473 66.603 31.9164 66.5181 31.8863C66.4811 31.8754 66.4451 31.8613 66.4105 31.8442C66.41 31.8344 66.6292 31.9506 66.5135 31.8872C66.3674 31.8073 66.2163 31.7403 66.0736 31.6529C65.9975 31.6063 65.9243 31.5556 65.8503 31.5057C65.8177 31.4858 65.7868 31.4633 65.7577 31.4384C65.7602 31.4284 65.9391 31.5966 65.8452 31.5058C65.7264 31.3909 65.5993 31.288 65.4869 31.1657C65.4611 31.1377 65.4368 31.1084 65.4112 31.0804L65.3863 31.0516C65.3229 30.9729 65.3218 30.9733 65.3828 31.0527C65.4448 31.0712 65.442 31.1403 65.3832 31.0506C65.3622 31.0186 65.3399 30.9876 65.319 30.9556C65.224 30.8182 65.143 30.6713 65.0772 30.5173C65.0829 30.5128 65.1786 30.803 65.1054 30.584C65.0916 30.5426 65.0761 30.5019 65.0625 30.4604C65.0357 30.3782 65.012 30.295 64.9916 30.2109C64.9713 30.1276 64.961 30.0417 64.9406 29.9587C64.9062 29.8188 64.9607 30.069 64.9545 30.0628C64.935 30.0432 64.9433 29.922 64.9418 29.8929C64.9324 29.7066 64.9533 29.5258 64.9566 29.3406C64.9592 29.1971 64.9449 29.4524 64.942 29.4449C64.9427 29.4019 64.9502 29.3593 64.9642 29.3188C64.9853 29.2211 65.0051 29.1235 65.031 29.0269C65.0607 28.9163 65.0948 28.8071 65.1335 28.6992C65.1479 28.6588 65.1655 28.6191 65.179 28.5784C65.2282 28.4292 65.0815 28.7584 65.1624 28.624C65.2737 28.439 65.3566 28.2388 65.4747 28.0561C65.5027 28.0128 65.6729 27.7716 65.5826 27.8934C65.4926 28.0147 65.6751 27.7847 65.7096 27.7457C65.8531 27.5835 66.0218 27.4504 66.1704 27.2951C66.2583 27.2031 66.109 27.3403 66.1002 27.3467C66.1462 27.3133 66.1912 27.2787 66.2378 27.2461C66.319 27.1893 66.4022 27.1356 66.4874 27.085C66.5834 27.0278 66.6919 26.9853 66.7849 26.9249C66.8948 26.8535 66.7009 26.9562 66.6974 26.9584C66.7476 26.9331 66.8001 26.9128 66.8541 26.8978C66.9447 26.8652 67.3386 26.6926 67.4212 26.7466C67.4175 26.7441 67.1221 26.7707 67.3609 26.7551C67.4173 26.7514 67.4735 26.7459 67.53 26.7435C67.6443 26.7387 67.7582 26.7416 67.8724 26.7476C68.182 26.7455 68.4784 26.6198 68.6973 26.3975C68.9162 26.1753 69.0401 25.8745 69.0421 25.5602C69.0355 25.2474 68.9101 24.9492 68.6922 24.728C68.4743 24.5067 68.1805 24.3794 67.8724 24.3727Z" fill="#E6E6E6"/>
<path d="M304.445 287.356H17.5502C13.9224 287.352 10.4443 285.888 7.87905 283.284C5.31376 280.679 3.87078 277.149 3.8667 273.466V13.8908C3.87077 10.208 5.31372 6.6772 7.879 4.07307C10.4443 1.46894 13.9224 0.00412973 17.5502 0H304.445C308.072 0.00412973 311.551 1.46894 314.116 4.07307C316.681 6.6772 318.124 10.208 318.128 13.8908V273.466C318.124 277.149 316.681 280.679 314.116 283.284C311.551 285.888 308.072 287.352 304.445 287.356ZM17.5502 1.58323C14.3359 1.58694 11.2542 2.88482 8.98136 5.19213C6.70848 7.49943 5.42997 10.6277 5.42631 13.8908V273.466C5.43005 276.729 6.7086 279.857 8.98148 282.164C11.2544 284.472 14.336 285.769 17.5502 285.773H304.445C307.659 285.769 310.741 284.472 313.013 282.164C315.286 279.857 316.565 276.729 316.569 273.466V13.8908C316.565 10.6277 315.286 7.49943 313.013 5.19213C310.741 2.88482 307.659 1.58695 304.445 1.58323H17.5502Z" fill="#E6E6E6"/>
<path d="M17.0747 176.614L117.965 176.303L218.341 175.993L274.963 175.818C275.267 175.807 275.554 175.677 275.765 175.456C275.975 175.234 276.093 174.938 276.093 174.63C276.093 174.322 275.975 174.026 275.765 173.805C275.554 173.583 275.267 173.454 274.963 173.443L174.073 173.754L73.697 174.064L17.0747 174.239C16.7715 174.25 16.4842 174.38 16.2734 174.601C16.0626 174.823 15.9448 175.119 15.9448 175.427C15.9448 175.735 16.0626 176.031 16.2734 176.252C16.4842 176.474 16.7715 176.603 17.0747 176.614Z" fill="#E6E6E6"/>
<path d="M67.9724 174.689L68.5963 137.295C68.6218 135.766 66.2824 135.766 66.2569 137.295L65.633 174.689C65.6075 176.218 67.9469 176.218 67.9724 174.689Z" fill="#E6E6E6"/>
<path d="M116.192 175.093L117.713 128.092L118.147 114.663C118.196 113.134 115.857 113.136 115.807 114.663L114.287 161.664L113.853 175.093C113.803 176.622 116.143 176.62 116.192 175.093Z" fill="#E6E6E6"/>
<path d="M164.282 92.3825C163.365 109.03 161.668 158.134 160.751 174.782C160.667 176.309 163.006 176.304 163.09 174.782C164.007 158.134 165.704 109.03 166.621 92.3825C166.705 90.8555 164.365 90.8604 164.282 92.3825Z" fill="#E6E6E6"/>
<path d="M212.14 158.077L211.853 174.078C211.825 175.607 214.165 175.607 214.192 174.078C214.531 155.18 215.399 155.796 215.495 150.462C215.522 148.933 213.183 148.933 213.156 150.462C213.156 150.462 212.478 139.179 212.14 158.077Z" fill="#E6E6E6"/>
<path d="M259.015 116.042L259.279 160.933L259.355 173.788C259.365 174.095 259.493 174.387 259.712 174.601C259.93 174.815 260.221 174.935 260.525 174.935C260.828 174.935 261.12 174.815 261.338 174.601C261.556 174.387 261.684 174.095 261.694 173.788L261.43 128.896L261.354 116.042C261.344 115.734 261.216 115.442 260.998 115.228C260.779 115.014 260.488 114.895 260.184 114.895C259.881 114.895 259.589 115.014 259.371 115.228C259.153 115.442 259.025 115.734 259.015 116.042Z" fill="#E6E6E6"/>
<path d="M17.2628 175.278C15.3264 169.876 19.6915 164.681 24.1768 162.346C29.5504 159.549 35.7321 158.915 41.1627 156.219C49.2589 152.199 55.1558 144.984 60.4031 137.763C65.8038 130.33 70.7455 122.353 77.6081 116.178C81.2243 112.851 85.4954 110.342 90.1385 108.816C95.9888 106.963 102.193 106.836 108.238 107.583C120.73 109.126 132.309 114.363 144.362 117.692C155.726 120.831 168.246 122.595 179.399 117.715C185.066 115.236 189.7 111.077 194.677 107.478C199.494 103.959 204.88 101.321 210.592 99.6851C221.788 96.5245 234.016 97.3684 244.439 102.711C254.021 107.56 261.608 115.688 265.86 125.662C270.802 137.646 270.159 151.038 268.545 163.652C268.127 166.912 267.631 170.162 267.129 173.41C266.898 174.905 269.152 175.549 269.385 174.041C271.395 161.034 273.399 147.615 270.898 134.527C268.735 123.098 262.544 112.861 253.484 105.73C244.385 98.5809 233.074 94.9572 221.581 95.5096C215.558 95.7934 209.629 97.132 204.055 99.4664C198.27 101.896 193.37 105.497 188.394 109.285C183.278 113.181 178.003 116.403 171.651 117.674C165.489 118.906 159.079 118.444 152.945 117.28C140.287 114.88 128.488 109.376 115.937 106.556C104.309 103.944 91.7613 103.683 81.3487 110.351C73.339 115.481 67.6793 123.444 62.2476 131.134C56.8635 138.757 51.4113 146.907 43.5384 152.114C38.7358 155.291 33.3371 156.463 27.9647 158.249C22.5783 160.04 17.4074 163.061 15.2111 168.663C14.2646 170.97 14.1918 173.551 15.0069 175.909C15.5177 177.334 17.7793 176.719 17.2628 175.278Z" fill="#E6E6E6"/>
<path d="M67.1968 132.125L67.1934 132.127L67.2003 132.125H67.1968Z" fill="#E6E6E6"/>
<path d="M71.2529 129.94C70.7122 128.968 69.8496 128.222 68.8184 127.835C67.7871 127.447 66.654 127.443 65.6202 127.824C65.1063 128.014 64.6353 128.307 64.2349 128.686C63.8346 129.064 63.513 129.52 63.2893 130.027C63.2445 130.135 63.2184 130.248 63.1818 130.358C63.1311 130.442 63.0702 130.517 63.0248 130.604C62.5399 131.584 62.4072 132.706 62.6494 133.776C62.8916 134.845 63.4936 135.795 64.3517 136.463C65.2098 137.13 66.2703 137.473 67.3505 137.432C68.4308 137.391 69.4632 136.969 70.2698 136.238C71.1176 135.46 71.6775 134.411 71.8563 133.265C72.0352 132.119 71.8222 130.946 71.2529 129.94ZM68.3229 131.957C68.329 132.072 68.3325 132.017 68.3229 131.957V131.957ZM68.0251 131.269C68.0136 131.256 68.0151 131.257 68.0251 131.269V131.269ZM66.7124 131.805C66.6932 131.773 66.6949 131.778 66.7124 131.805V131.805ZM67.0236 132.073C67.0684 132.093 67.0977 132.099 67.0236 132.073V132.073ZM67.1625 132.14L67.1933 132.126C67.1858 132.127 67.1782 132.125 67.1715 132.121L67.1724 132.121L67.1965 132.124L67.2011 132.122L67.1871 132.119C67.1992 132.119 67.2002 132.12 67.2011 132.122C67.3402 132.058 67.2463 132.089 67.1656 132.114L67.1603 132.113C67.1099 132.087 67.0557 132.069 66.9999 132.06C66.9947 132.058 66.9886 132.055 66.9843 132.052C66.9395 132.02 66.7131 131.84 66.9231 132.029C66.8774 131.988 66.8323 131.947 66.7893 131.903C66.7639 131.877 66.741 131.848 66.7207 131.818C66.6931 131.77 66.6664 131.721 66.6405 131.672L66.6366 131.646C66.6332 131.624 66.6306 131.615 66.6277 131.602C66.6291 131.588 66.6312 131.574 66.6333 131.56C66.649 131.517 66.659 131.472 66.663 131.427L66.6721 131.415C66.7057 131.368 66.7351 131.312 66.7672 131.263C66.5976 131.524 66.8334 131.234 66.8511 131.197C66.8541 131.191 66.8488 131.194 66.8501 131.19C66.857 131.186 66.8549 131.189 66.8632 131.184C66.9157 131.152 66.9655 131.117 67.0189 131.087C67.0824 131.052 67.3327 130.979 67.0731 131.055C67.1321 131.038 67.1887 131.016 67.2483 131C67.2591 130.997 67.3464 130.985 67.3935 130.976C67.4349 130.975 67.475 130.974 67.4792 130.974C67.4986 130.974 67.518 130.977 67.5375 130.978C67.4944 130.983 67.6853 131.025 67.742 131.034C67.7502 131.041 67.7543 131.045 67.7655 131.053C67.8134 131.089 67.8717 131.12 67.9223 131.154C67.6961 131.005 67.9253 131.165 67.9685 131.209C67.9943 131.235 68.0181 131.263 68.0424 131.291C68.0647 131.317 68.0849 131.345 68.1027 131.375C68.1398 131.444 68.1792 131.514 68.2182 131.582L68.229 131.599C68.2288 131.601 68.2287 131.603 68.2287 131.606C68.249 131.716 68.279 131.824 68.3183 131.929C68.3202 131.937 68.3217 131.946 68.3227 131.955C68.3263 132.016 68.3313 132.076 68.3314 132.136L68.3309 132.149C68.1507 132.053 67.9508 132.003 67.7477 132.001C67.5445 132 67.344 132.047 67.1625 132.14Z" fill="#E6E6E6"/>
<path d="M67.2039 132.123C67.2083 132.124 67.2031 132.125 67.2031 132.125L67.2039 132.123Z" fill="#E6E6E6"/>
<path d="M67.2042 132.124L67.1997 132.125C67.2054 132.126 67.2042 132.124 67.2042 132.124Z" fill="#E6E6E6"/>
<path d="M67.2012 132.122L67.2032 132.123L67.2012 132.122Z" fill="#E6E6E6"/>
<path d="M117.105 109.959L117.101 109.961L117.108 109.959H117.105Z" fill="#E6E6E6"/>
<path d="M121.16 107.775C120.619 106.803 119.757 106.057 118.726 105.669C117.694 105.282 116.561 105.278 115.527 105.659C115.014 105.849 114.543 106.142 114.142 106.521C113.742 106.899 113.42 107.355 113.197 107.862C113.152 107.969 113.126 108.083 113.089 108.193C113.038 108.276 112.977 108.351 112.932 108.438C112.447 109.419 112.314 110.541 112.557 111.61C112.799 112.68 113.401 113.63 114.259 114.298C115.117 114.965 116.178 115.308 117.258 115.267C118.338 115.226 119.37 114.804 120.177 114.073C121.025 113.295 121.585 112.246 121.764 111.1C121.942 109.954 121.729 108.781 121.16 107.775ZM118.23 109.792C118.236 109.907 118.24 109.852 118.23 109.792V109.792ZM117.932 109.104C117.921 109.091 117.922 109.092 117.932 109.104V109.104ZM116.62 109.64C116.6 109.608 116.602 109.613 116.62 109.64V109.64ZM116.931 109.908C116.976 109.928 117.005 109.933 116.931 109.908V109.908ZM117.07 109.975L117.101 109.961C117.093 109.961 117.085 109.96 117.079 109.956L117.08 109.956L117.104 109.959L117.108 109.957L117.094 109.954C117.106 109.953 117.107 109.955 117.108 109.957C117.247 109.892 117.153 109.923 117.073 109.949L117.067 109.947C117.017 109.922 116.963 109.904 116.907 109.895C116.902 109.892 116.896 109.89 116.891 109.887C116.847 109.855 116.62 109.675 116.83 109.863C116.785 109.822 116.739 109.782 116.696 109.738C116.671 109.712 116.648 109.683 116.628 109.652C116.6 109.604 116.574 109.556 116.548 109.507L116.544 109.481C116.54 109.459 116.538 109.45 116.535 109.437C116.536 109.423 116.538 109.409 116.541 109.394C116.556 109.352 116.566 109.307 116.57 109.262L116.579 109.25C116.613 109.202 116.642 109.147 116.674 109.097C116.505 109.359 116.741 109.069 116.758 109.032C116.761 109.026 116.756 109.029 116.757 109.025C116.764 109.021 116.762 109.023 116.77 109.019C116.823 108.987 116.873 108.952 116.926 108.922C116.99 108.886 117.24 108.814 116.98 108.889C117.039 108.872 117.096 108.851 117.155 108.835C117.166 108.832 117.254 108.82 117.301 108.811C117.342 108.81 117.382 108.809 117.386 108.809C117.406 108.809 117.425 108.812 117.445 108.812C117.402 108.818 117.592 108.86 117.649 108.869C117.657 108.875 117.662 108.88 117.673 108.888C117.721 108.924 117.779 108.955 117.829 108.988C117.603 108.84 117.832 109 117.876 109.044C117.901 109.07 117.925 109.098 117.95 109.126C117.972 109.152 117.992 109.18 118.01 109.21C118.047 109.279 118.086 109.348 118.125 109.416L118.136 109.434C118.136 109.436 118.136 109.438 118.136 109.441C118.156 109.551 118.186 109.659 118.225 109.763C118.227 109.772 118.229 109.781 118.23 109.79C118.233 109.85 118.238 109.911 118.239 109.971L118.238 109.983C118.058 109.888 117.858 109.838 117.655 109.836C117.452 109.835 117.251 109.882 117.07 109.975Z" fill="#E6E6E6"/>
<path d="M117.112 109.959L117.107 109.96C117.113 109.96 117.112 109.959 117.112 109.959Z" fill="#E6E6E6"/>
<path d="M117.109 109.957L117.111 109.958L117.109 109.957Z" fill="#E6E6E6"/>
<path d="M117.112 109.958C117.116 109.959 117.111 109.959 117.111 109.959L117.112 109.958Z" fill="#E6E6E6"/>
<path d="M165.457 121.04L165.459 121.041L165.457 121.04Z" fill="#E6E6E6"/>
<path d="M169.508 85.6096C168.968 84.6376 168.105 83.8917 167.074 83.5042C166.042 83.1168 164.909 83.1129 163.876 83.4934C163.362 83.6838 162.891 83.9769 162.49 84.3553C162.09 84.7337 161.768 85.1898 161.545 85.6966C161.5 85.8043 161.474 85.9175 161.437 86.0279C161.386 86.1111 161.326 86.1862 161.28 86.2732C160.795 87.254 160.663 88.3758 160.905 89.4452C161.147 90.5147 161.749 91.465 162.607 92.1323C163.465 92.7997 164.526 93.1424 165.606 93.1015C166.686 93.0605 167.719 92.6384 168.525 91.9079C169.373 91.1299 169.933 90.0807 170.112 88.9349C170.291 87.789 170.078 86.6156 169.508 85.6096ZM166.578 87.6264C166.584 87.7414 166.588 87.6863 166.578 87.6264V87.6264ZM166.28 86.9389C166.269 86.9255 166.27 86.927 166.28 86.9389V86.9389ZM164.968 87.4747C164.949 87.4427 164.95 87.4473 164.968 87.4747V87.4747ZM165.279 87.7425C165.324 87.7628 165.353 87.7682 165.279 87.7425V87.7425ZM165.418 87.8098L165.449 87.7954C165.441 87.7961 165.434 87.7946 165.427 87.7911L165.428 87.7909L165.452 87.7939L165.456 87.7918L165.442 87.7886C165.455 87.7881 165.456 87.7899 165.456 87.7918C165.596 87.7272 165.502 87.7582 165.421 87.7835L165.416 87.7823C165.365 87.7563 165.311 87.7387 165.255 87.73C165.25 87.7271 165.244 87.725 165.24 87.7218C165.195 87.6894 164.968 87.5099 165.178 87.6981C165.133 87.6572 165.088 87.6169 165.045 87.5727C165.019 87.5463 164.996 87.5176 164.976 87.4871C164.948 87.4391 164.922 87.3907 164.896 87.3419L164.892 87.3156C164.889 87.2937 164.886 87.2846 164.883 87.2715C164.884 87.2579 164.887 87.2433 164.889 87.2291C164.904 87.1864 164.914 87.1418 164.918 87.0964L164.927 87.0848C164.961 87.0372 164.99 86.9817 165.022 86.9322C164.853 87.1936 165.089 86.9034 165.106 86.8666C165.109 86.8603 165.104 86.8638 165.105 86.8594C165.112 86.8555 165.11 86.8582 165.118 86.8533C165.171 86.8219 165.221 86.7868 165.274 86.7568C165.338 86.7211 165.588 86.649 165.328 86.7243C165.387 86.7072 165.444 86.6856 165.504 86.6698C165.514 86.6669 165.602 86.6545 165.649 86.6459C165.69 86.6448 165.73 86.6436 165.735 86.6436C165.754 86.6439 165.773 86.6463 165.793 86.6472C165.75 86.653 165.941 86.6949 165.997 86.7037C166.005 86.7103 166.01 86.7145 166.021 86.7227C166.069 86.7583 166.127 86.7899 166.178 86.8231C165.951 86.6747 166.181 86.8349 166.224 86.8787C166.25 86.905 166.273 86.933 166.298 86.9605C166.32 86.9868 166.34 87.0149 166.358 87.0444C166.395 87.1134 166.435 87.1833 166.474 87.2511L166.484 87.2686C166.484 87.2708 166.484 87.2731 166.484 87.2753C166.504 87.3854 166.534 87.4934 166.574 87.5981C166.576 87.6069 166.577 87.6159 166.578 87.6249C166.582 87.6852 166.587 87.7453 166.587 87.806L166.586 87.8182C166.406 87.7229 166.206 87.6724 166.003 87.6709C165.8 87.6694 165.599 87.717 165.418 87.8098Z" fill="#E6E6E6"/>
<path d="M165.452 121.042L165.449 121.044L165.456 121.042H165.452Z" fill="#E6E6E6"/>
<path d="M165.46 121.042L165.455 121.042C165.461 121.043 165.46 121.042 165.46 121.042Z" fill="#E6E6E6"/>
<path d="M165.459 121.04C165.464 121.042 165.458 121.042 165.458 121.042L165.459 121.04Z" fill="#E6E6E6"/>
<path d="M218.636 146.564C218.095 145.592 217.233 144.846 216.202 144.459C215.17 144.071 214.037 144.067 213.004 144.448C212.49 144.638 212.019 144.931 211.618 145.31C211.218 145.688 210.896 146.144 210.673 146.651C210.628 146.759 210.602 146.872 210.565 146.982C210.514 147.065 210.453 147.141 210.408 147.228C209.923 148.208 209.79 149.33 210.033 150.4C210.275 151.469 210.877 152.419 211.735 153.087C212.593 153.754 213.654 154.097 214.734 154.056C215.814 154.015 216.846 153.593 217.653 152.862C218.501 152.084 219.061 151.035 219.24 149.889C219.418 148.743 219.206 147.57 218.636 146.564ZM215.706 148.581C215.712 148.696 215.716 148.641 215.706 148.581V148.581ZM215.408 147.893C215.397 147.88 215.398 147.881 215.408 147.893V147.893ZM214.096 148.429C214.076 148.397 214.078 148.402 214.096 148.429V148.429ZM214.407 148.697C214.452 148.717 214.481 148.722 214.407 148.697V148.697ZM214.546 148.764L214.577 148.75C214.569 148.75 214.561 148.749 214.555 148.745L214.556 148.745L214.58 148.748L214.584 148.746L214.57 148.743C214.582 148.742 214.583 148.744 214.584 148.746C214.723 148.682 214.63 148.713 214.549 148.738L214.544 148.737C214.493 148.711 214.439 148.693 214.383 148.684C214.378 148.681 214.372 148.679 214.368 148.676C214.323 148.644 214.096 148.464 214.306 148.652C214.261 148.612 214.216 148.571 214.173 148.527C214.147 148.501 214.124 148.472 214.104 148.441C214.076 148.393 214.05 148.345 214.024 148.296L214.02 148.27C214.016 148.248 214.014 148.239 214.011 148.226C214.012 148.212 214.014 148.198 214.017 148.183C214.032 148.141 214.042 148.096 214.046 148.051L214.055 148.039C214.089 147.992 214.118 147.936 214.15 147.887C213.981 148.148 214.217 147.858 214.234 147.821C214.237 147.815 214.232 147.818 214.233 147.814C214.24 147.81 214.238 147.813 214.246 147.808C214.299 147.776 214.349 147.741 214.402 147.711C214.466 147.675 214.716 147.603 214.456 147.679C214.515 147.662 214.572 147.64 214.632 147.624C214.642 147.621 214.73 147.609 214.777 147.6C214.818 147.599 214.858 147.598 214.862 147.598C214.882 147.598 214.901 147.601 214.921 147.602C214.878 147.607 215.069 147.649 215.125 147.658C215.133 147.665 215.138 147.669 215.149 147.677C215.197 147.713 215.255 147.744 215.306 147.777C215.079 147.629 215.309 147.789 215.352 147.833C215.378 147.859 215.401 147.887 215.426 147.915C215.448 147.941 215.468 147.969 215.486 147.999C215.523 148.068 215.562 148.138 215.601 148.205L215.612 148.223C215.612 148.225 215.612 148.227 215.612 148.23C215.632 148.34 215.662 148.448 215.702 148.552C215.703 148.561 215.705 148.57 215.706 148.579C215.71 148.64 215.715 148.7 215.715 148.76L215.714 148.773C215.534 148.677 215.334 148.627 215.131 148.625C214.928 148.624 214.727 148.671 214.546 148.764Z" fill="#E6E6E6"/>
<path d="M214.58 96.5019L214.577 96.5039L214.584 96.5019H214.58Z" fill="#E6E6E6"/>
<path d="M214.588 96.5016L214.583 96.5023C214.589 96.5029 214.588 96.5016 214.588 96.5016Z" fill="#E6E6E6"/>
<path d="M214.587 96.5004C214.592 96.5017 214.586 96.5019 214.586 96.5019L214.587 96.5004Z" fill="#E6E6E6"/>
<path d="M214.584 96.4995L214.586 96.5005L214.584 96.4995Z" fill="#E6E6E6"/>
<path d="M264.644 110.15C264.104 109.178 263.241 108.432 262.21 108.044C261.179 107.657 260.046 107.653 259.012 108.033C258.498 108.224 258.027 108.517 257.627 108.895C257.226 109.274 256.905 109.73 256.681 110.237C256.636 110.344 256.61 110.458 256.573 110.568C256.523 110.651 256.462 110.726 256.416 110.813C255.932 111.794 255.799 112.916 256.041 113.985C256.283 115.055 256.885 116.005 257.743 116.672C258.601 117.34 259.662 117.682 260.742 117.641C261.822 117.601 262.855 117.178 263.661 116.448C264.509 115.67 265.069 114.621 265.248 113.475C265.427 112.329 265.214 111.156 264.644 110.15ZM261.715 112.166C261.721 112.281 261.724 112.226 261.715 112.166V112.166ZM261.417 111.479C261.405 111.466 261.407 111.467 261.417 111.479V111.479ZM260.104 112.015C260.085 111.983 260.086 111.987 260.104 112.015V112.015ZM260.415 112.283C260.46 112.303 260.489 112.308 260.415 112.283V112.283ZM260.554 112.35L260.585 112.335C260.577 112.336 260.57 112.335 260.563 112.331L260.564 112.331L260.588 112.334L260.593 112.332L260.579 112.329C260.591 112.328 260.592 112.33 260.593 112.332C260.732 112.267 260.638 112.298 260.557 112.324L260.552 112.322C260.501 112.296 260.447 112.279 260.391 112.27C260.386 112.267 260.38 112.265 260.376 112.262C260.331 112.229 260.105 112.05 260.315 112.238C260.269 112.197 260.224 112.157 260.181 112.113C260.155 112.086 260.133 112.058 260.112 112.027C260.085 111.979 260.058 111.931 260.032 111.882L260.028 111.856C260.025 111.834 260.022 111.825 260.019 111.811C260.021 111.798 260.023 111.783 260.025 111.769C260.041 111.726 260.051 111.682 260.055 111.636L260.064 111.625C260.097 111.577 260.127 111.522 260.159 111.472C259.989 111.734 260.225 111.443 260.243 111.407C260.246 111.4 260.24 111.404 260.242 111.399C260.249 111.396 260.246 111.398 260.255 111.393C260.307 111.362 260.357 111.327 260.41 111.297C260.474 111.261 260.724 111.189 260.465 111.264C260.524 111.247 260.58 111.226 260.64 111.21C260.651 111.207 260.738 111.195 260.785 111.186C260.826 111.185 260.867 111.184 260.871 111.184C260.89 111.184 260.91 111.186 260.929 111.187C260.886 111.193 261.077 111.235 261.134 111.244C261.142 111.25 261.146 111.254 261.157 111.263C261.205 111.298 261.263 111.33 261.314 111.363C261.088 111.215 261.317 111.375 261.36 111.419C261.386 111.445 261.41 111.473 261.434 111.501C261.456 111.527 261.476 111.555 261.494 111.584C261.531 111.653 261.571 111.723 261.61 111.791L261.621 111.809C261.62 111.811 261.62 111.813 261.62 111.815C261.641 111.925 261.671 112.033 261.71 112.138C261.712 112.147 261.713 112.156 261.714 112.165C261.718 112.225 261.723 112.285 261.723 112.346L261.722 112.358C261.542 112.263 261.342 112.212 261.139 112.211C260.936 112.209 260.736 112.257 260.554 112.35Z" fill="#E6E6E6"/>
<path d="M260.588 112.334L260.585 112.336L260.592 112.334H260.588Z" fill="#E6E6E6"/>
<path d="M260.593 112.332L260.595 112.333L260.593 112.332Z" fill="#E6E6E6"/>
<path d="M260.596 112.333C260.6 112.334 260.595 112.334 260.595 112.334L260.596 112.333Z" fill="#E6E6E6"/>
<path d="M260.596 112.334L260.591 112.335C260.597 112.335 260.596 112.334 260.596 112.334Z" fill="#E6E6E6"/>
<path d="M247.981 148.612L211.722 150.658C211.518 150.67 211.317 150.601 211.161 150.467C211.005 150.333 210.905 150.142 210.883 149.936C210.861 149.729 210.918 149.522 211.042 149.357C211.166 149.191 211.347 149.08 211.549 149.047L248.609 142.925L247.981 148.612Z" fill="#4D4D4D"/>
<path d="M294.06 230.558L307.723 207.222L317.822 212.064C317.822 212.064 300.42 234.128 299.866 234.762C300.103 235.835 300.014 236.955 299.611 237.975C299.207 238.995 298.509 239.867 297.606 240.475C296.704 241.083 295.642 241.398 294.559 241.38C293.477 241.361 292.425 241.01 291.544 240.372C290.662 239.733 289.992 238.838 289.623 237.805C289.253 236.772 289.201 235.649 289.474 234.585C289.747 233.522 290.331 232.567 291.15 231.848C291.969 231.129 292.983 230.679 294.06 230.558Z" fill="#FFB6B6"/>
<path d="M299.743 176.351L321.88 188.076C323.263 189.087 324.424 190.381 325.287 191.874C326.149 193.367 326.696 195.026 326.891 196.745C327.087 198.465 326.926 200.207 326.421 201.86C325.915 203.513 325.075 205.04 323.955 206.345L308.694 224.116L302.045 214.971L307.17 204.094L297.248 201.438L299.743 176.351Z" fill="#4CAF4F"/>
<path d="M236.659 148.994L234.166 176.022L222.998 176.041C222.998 176.041 229.405 148.535 229.638 147.721C228.971 146.855 228.578 145.804 228.512 144.707C228.446 143.61 228.71 142.518 229.268 141.577C229.826 140.635 230.653 139.887 231.639 139.433C232.625 138.979 233.724 138.839 234.79 139.032C235.855 139.225 236.838 139.743 237.608 140.515C238.378 141.288 238.899 142.28 239.102 143.36C239.305 144.439 239.18 145.556 238.744 146.562C238.307 147.568 237.581 148.416 236.659 148.994Z" fill="#FFB6B6"/>
<path d="M258.891 204.266L233.185 199.48C222.36 198.159 217.918 190.929 219.871 183.876L226.157 161.18L236.025 166.551L235.987 178.607L249.799 176.69L258.891 204.266Z" fill="#4CAF4F"/>
<path d="M248.369 391.052H241.301L237.938 363.375H248.37L248.369 391.052Z" fill="#FFB6B6"/>
<path d="M248.618 398.537L226.882 398.536V398.257C226.882 395.98 227.773 393.795 229.36 392.185C230.947 390.574 233.098 389.669 235.342 389.669L239.313 386.612L246.721 389.67L248.618 389.67L248.618 398.537Z" fill="#4D4D4D"/>
<path d="M298.381 391.052H305.45L308.812 363.375H298.38L298.381 391.052Z" fill="#FFB6B6"/>
<path d="M298.133 398.537L319.868 398.536V398.257C319.868 395.98 318.977 393.795 317.39 392.185C315.804 390.574 313.652 389.669 311.408 389.669L307.437 386.612L300.03 389.67L298.132 389.67L298.133 398.537Z" fill="#4D4D4D"/>
<path d="M237.627 343.037C237.731 341.458 238.561 332.724 238.561 332.724L240.549 314.202L244.053 265.105L247.177 252.2L262.637 258.314L275.182 252.209L290.092 257.047L301.702 261.467C301.702 261.467 301.722 263.359 301.812 265.645C301.931 268.637 302.14 272.305 302.637 273.258C303.467 274.944 303.258 283.99 303.258 283.99C303.258 283.99 304.083 302.396 305.122 304.414C306.161 306.432 306.369 310.635 306.056 311.478C305.743 312.32 307.095 334.424 307.095 334.424C307.095 334.424 310.565 373.541 308.388 379.439C306.211 385.337 297.985 381.473 297.985 381.473C297.985 381.473 298.382 379.899 295.997 379.157C293.611 378.416 286.345 322.951 286.345 322.951C286.345 322.951 284.993 311.579 283.75 308.319C282.508 305.06 281.364 295.902 281.364 295.902C281.364 295.902 273.69 280.746 273.591 277.375C273.591 277.375 272.587 274.222 271.638 277.693C270.688 281.165 267.89 289.48 267.89 289.48L265.162 299.691L261.951 314.949L259.873 327.795C259.873 327.795 256.762 344.843 256.265 345.58C255.768 346.316 256.265 361.892 256.265 361.892C256.265 361.892 253.859 375.156 250.46 377.472C247.06 379.788 238.053 377.509 238.053 377.509C238.053 377.509 237.522 344.616 237.627 343.037Z" fill="#4D4D4D"/>
<path d="M249.185 210.674L247.209 236.654L244.241 239.772C243.973 240.053 243.764 240.386 243.627 240.751C243.489 241.116 243.425 241.506 243.439 241.897C243.453 242.287 243.545 242.671 243.708 243.025C243.872 243.379 244.104 243.696 244.391 243.956L242.756 246.803L242.177 255.772C242.012 256.47 242 257.196 242.144 257.899C242.287 258.602 242.582 259.264 243.006 259.838C243.431 260.412 243.975 260.883 244.6 261.219C245.224 261.555 245.915 261.747 246.621 261.78L297.801 264.221C298.503 264.255 299.204 264.131 299.854 263.86C300.505 263.588 301.088 263.175 301.564 262.649C302.039 262.123 302.395 261.498 302.607 260.817C302.818 260.137 302.879 259.417 302.787 258.71L298.435 225.451V222.964L296.487 218.161L297.488 202.072L299.817 176.536L286.278 172.986L278.937 167.858L266.183 168.065L258.445 174.516L248.127 176.157L240.324 177.731L239.33 179.924L241.318 179.486L248.524 208.017L249.185 210.674Z" fill="#4CAF4F"/>
<path d="M272.275 164.377C280.572 164.377 287.298 157.549 287.298 149.126C287.298 140.703 280.572 133.875 272.275 133.875C263.977 133.875 257.251 140.703 257.251 149.126C257.251 157.549 263.977 164.377 272.275 164.377Z" fill="#FFB6B6"/>
<path d="M268.653 163.393L279.507 162.831C280.898 162.759 282.416 162.635 283.428 161.663C283.972 161.063 284.39 160.357 284.658 159.588C285.662 157.222 286.665 154.855 287.643 152.478C288.996 149.19 290.324 145.718 289.979 142.172C289.898 140.552 289.229 139.021 288.101 137.872C287.525 137.319 286.785 136.975 285.996 136.894C285.208 136.813 284.415 136.999 283.742 137.424C283.574 136.302 283.158 135.234 282.524 134.3C281.89 133.365 281.055 132.59 280.083 132.031C278.118 130.93 275.875 130.447 273.64 130.644C270.396 130.857 267.299 132.096 264.784 134.188C264.077 134.85 263.322 135.457 262.525 136.005C262.124 136.277 261.673 136.463 261.199 136.552C260.725 136.641 260.238 136.631 259.768 136.523C259.302 136.396 258.897 136.103 258.628 135.697C258.359 135.292 258.243 134.8 258.303 134.315C257.538 134.895 257.014 135.744 256.833 136.695C256.651 137.646 256.825 138.632 257.321 139.46C256.757 139.7 256.142 139.788 255.536 139.715C254.929 139.642 254.351 139.411 253.858 139.044C253.33 139.31 252.863 139.685 252.486 140.145C252.109 140.605 251.831 141.14 251.669 141.716C251.507 142.291 251.466 142.894 251.547 143.487C251.629 144.08 251.831 144.648 252.142 145.157C252.452 145.666 252.864 146.103 253.35 146.441C253.837 146.778 254.387 147.009 254.967 147.119C255.546 147.228 256.142 147.213 256.715 147.075C257.289 146.937 257.828 146.68 258.298 146.318C258.956 147.255 258.711 148.528 258.625 149.675C258.539 150.823 258.843 152.249 259.932 152.566C261.406 152.995 262.599 150.981 264.132 151.003C264.51 151.034 264.874 151.159 265.193 151.368C265.512 151.577 265.775 151.862 265.96 152.198C266.321 152.875 266.568 153.608 266.691 154.367L268.653 163.331" fill="#4D4D4D"/>
<path d="M691.888 300.526C691.888 298.165 691.107 296.248 690.147 296.244H428.644C427.68 296.248 426.903 298.165 426.899 300.526V397.744C426.899 397.964 426.819 398.175 426.673 398.337C426.528 398.5 426.329 398.601 426.114 398.623C425.412 398.691 424.71 398.755 424.008 398.814C423.991 398.814 423.974 398.818 423.956 398.818C423.574 398.853 423.192 398.88 422.81 398.911H422.806C422.609 398.542 422.415 398.17 422.223 397.795C422.158 397.668 422.125 397.528 422.125 397.385V294.97C422.125 294.318 422.151 293.662 422.194 293.014C422.256 292.125 422.365 291.239 422.519 290.361C423.253 286.268 424.911 283.497 426.795 283.488H691.992C692.267 283.49 692.539 283.548 692.791 283.66C693.161 283.826 693.495 284.064 693.776 284.36C694.156 284.762 694.482 285.214 694.744 285.704C695.824 287.89 696.447 290.28 696.571 292.723C696.571 292.75 696.575 292.776 696.575 292.802C696.636 293.516 696.666 294.243 696.662 294.97L696.723 304.413L696.762 310.044L696.879 327.712L696.923 333.986L697.114 398.404C697.114 398.638 697.022 398.862 696.859 399.027C696.697 399.192 696.476 399.285 696.246 399.285H692.756C692.526 399.285 692.305 399.192 692.142 399.027C691.979 398.862 691.888 398.638 691.888 398.404V300.526Z" fill="#E6E6E6"/>
<path d="M620.829 239.305H592.652C592.253 239.306 591.871 239.467 591.589 239.754C591.308 240.04 591.15 240.428 591.15 240.833V286.019H622.334V240.833C622.334 240.632 622.295 240.434 622.22 240.248C622.144 240.063 622.033 239.894 621.893 239.753C621.754 239.611 621.588 239.498 621.405 239.421C621.222 239.345 621.027 239.305 620.829 239.305ZM606.835 264.98C605.954 264.975 605.11 264.618 604.487 263.986C603.864 263.353 603.512 262.496 603.508 261.602V256.39C603.508 255.494 603.858 254.635 604.482 254.002C605.106 253.368 605.953 253.012 606.835 253.012C607.717 253.012 608.564 253.368 609.188 254.002C609.812 254.635 610.162 255.494 610.162 256.39V261.602C610.158 262.496 609.806 263.353 609.183 263.986C608.56 264.618 607.716 264.975 606.835 264.98Z" fill="#CCCCCC"/>
<path d="M591.053 284.574V288.934C591.054 289.16 591.142 289.376 591.3 289.536C591.457 289.696 591.67 289.785 591.893 289.786H621.591C621.813 289.785 622.026 289.695 622.183 289.535C622.34 289.375 622.429 289.159 622.43 288.934V284.574H591.053Z" fill="#4D4D4D"/>
<path d="M667.488 168.787H547.041C546.006 168.789 545.014 169.207 544.282 169.95C543.55 170.692 543.138 171.699 543.137 172.75V255.26C543.138 256.31 543.549 257.318 544.281 258.061C545.013 258.804 546.005 259.221 547.041 259.222H667.488C668.523 259.221 669.516 258.804 670.247 258.061C670.979 257.318 671.391 256.31 671.392 255.26V172.75C671.39 171.699 670.978 170.692 670.247 169.95C669.515 169.207 668.523 168.789 667.488 168.787Z" fill="#E6E6E6"/>
<path d="M666.483 171.649H548.047C547.493 171.651 546.962 171.875 546.57 172.273C546.179 172.671 545.959 173.211 545.959 173.773V254.238C545.96 254.799 546.18 255.338 546.572 255.735C546.963 256.132 547.493 256.356 548.047 256.357H666.483C667.036 256.356 667.566 256.132 667.958 255.735C668.349 255.338 668.569 254.799 668.57 254.238V173.773C668.57 173.211 668.35 172.671 667.959 172.273C667.568 171.875 667.037 171.651 666.483 171.649Z" fill="white"/>
<path d="M643.413 291.303H572.951C572.758 291.303 572.567 291.259 572.393 291.175C572.219 291.091 572.065 290.968 571.944 290.816C571.822 290.664 571.736 290.486 571.691 290.296C571.645 290.106 571.642 289.908 571.682 289.716L572.775 284.445C572.838 284.15 572.997 283.885 573.228 283.695C573.459 283.505 573.747 283.401 574.044 283.4H642.32C642.617 283.401 642.905 283.505 643.136 283.695C643.367 283.885 643.526 284.15 643.589 284.445L644.682 289.716C644.722 289.908 644.719 290.106 644.673 290.296C644.628 290.486 644.541 290.664 644.42 290.816C644.298 290.968 644.145 291.091 643.971 291.175C643.797 291.259 643.606 291.303 643.413 291.303Z" fill="#CCCCCC"/>
<path d="M576.333 284.349H574.925C574.714 284.349 574.544 284.522 574.544 284.736V285.284C574.544 285.498 574.714 285.671 574.925 285.671H576.333C576.544 285.671 576.714 285.498 576.714 285.284V284.736C576.714 284.522 576.544 284.349 576.333 284.349Z" fill="#E6E6E6"/>
<path d="M580.674 284.349H579.265C579.055 284.349 578.884 284.522 578.884 284.736V285.284C578.884 285.498 579.055 285.671 579.265 285.671H580.674C580.884 285.671 581.054 285.498 581.054 285.284V284.736C581.054 284.522 580.884 284.349 580.674 284.349Z" fill="#E6E6E6"/>
<path d="M585.014 284.349H583.605C583.395 284.349 583.225 284.522 583.225 284.736V285.284C583.225 285.498 583.395 285.671 583.605 285.671H585.014C585.224 285.671 585.395 285.498 585.395 285.284V284.736C585.395 284.522 585.224 284.349 585.014 284.349Z" fill="#E6E6E6"/>
<path d="M589.354 284.349H587.946C587.735 284.349 587.565 284.522 587.565 284.736V285.284C587.565 285.498 587.735 285.671 587.946 285.671H589.354C589.565 285.671 589.735 285.498 589.735 285.284V284.736C589.735 284.522 589.565 284.349 589.354 284.349Z" fill="#E6E6E6"/>
<path d="M593.695 284.349H592.286C592.076 284.349 591.905 284.522 591.905 284.736V285.284C591.905 285.498 592.076 285.671 592.286 285.671H593.695C593.905 285.671 594.075 285.498 594.075 285.284V284.736C594.075 284.522 593.905 284.349 593.695 284.349Z" fill="#E6E6E6"/>
<path d="M598.036 284.349H596.627C596.417 284.349 596.246 284.522 596.246 284.736V285.284C596.246 285.498 596.417 285.671 596.627 285.671H598.036C598.246 285.671 598.416 285.498 598.416 285.284V284.736C598.416 284.522 598.246 284.349 598.036 284.349Z" fill="#E6E6E6"/>
<path d="M602.376 284.349H600.967C600.757 284.349 600.586 284.522 600.586 284.736V285.284C600.586 285.498 600.757 285.671 600.967 285.671H602.376C602.586 285.671 602.757 285.498 602.757 285.284V284.736C602.757 284.522 602.586 284.349 602.376 284.349Z" fill="#E6E6E6"/>
<path d="M606.716 284.349H605.307C605.097 284.349 604.927 284.522 604.927 284.736V285.284C604.927 285.498 605.097 285.671 605.307 285.671H606.716C606.927 285.671 607.097 285.498 607.097 285.284V284.736C607.097 284.522 606.927 284.349 606.716 284.349Z" fill="#E6E6E6"/>
<path d="M611.057 284.349H609.648C609.438 284.349 609.267 284.522 609.267 284.736V285.284C609.267 285.498 609.438 285.671 609.648 285.671H611.057C611.267 285.671 611.437 285.498 611.437 285.284V284.736C611.437 284.522 611.267 284.349 611.057 284.349Z" fill="#E6E6E6"/>
<path d="M615.397 284.349H613.988C613.778 284.349 613.607 284.522 613.607 284.736V285.284C613.607 285.498 613.778 285.671 613.988 285.671H615.397C615.607 285.671 615.778 285.498 615.778 285.284V284.736C615.778 284.522 615.607 284.349 615.397 284.349Z" fill="#E6E6E6"/>
<path d="M619.737 284.349H618.328C618.118 284.349 617.948 284.522 617.948 284.736V285.284C617.948 285.498 618.118 285.671 618.328 285.671H619.737C619.948 285.671 620.118 285.498 620.118 285.284V284.736C620.118 284.522 619.948 284.349 619.737 284.349Z" fill="#E6E6E6"/>
<path d="M624.078 284.349H622.669C622.459 284.349 622.288 284.522 622.288 284.736V285.284C622.288 285.498 622.459 285.671 622.669 285.671H624.078C624.288 285.671 624.458 285.498 624.458 285.284V284.736C624.458 284.522 624.288 284.349 624.078 284.349Z" fill="#E6E6E6"/>
<path d="M628.418 284.349H627.009C626.799 284.349 626.628 284.522 626.628 284.736V285.284C626.628 285.498 626.799 285.671 627.009 285.671H628.418C628.628 285.671 628.799 285.498 628.799 285.284V284.736C628.799 284.522 628.628 284.349 628.418 284.349Z" fill="#E6E6E6"/>
<path d="M632.758 284.349H631.349C631.139 284.349 630.969 284.522 630.969 284.736V285.284C630.969 285.498 631.139 285.671 631.349 285.671H632.758C632.968 285.671 633.139 285.498 633.139 285.284V284.736C633.139 284.522 632.968 284.349 632.758 284.349Z" fill="#E6E6E6"/>
<path d="M637.099 284.349H635.69C635.48 284.349 635.309 284.522 635.309 284.736V285.284C635.309 285.498 635.48 285.671 635.69 285.671H637.099C637.309 285.671 637.479 285.498 637.479 285.284V284.736C637.479 284.522 637.309 284.349 637.099 284.349Z" fill="#E6E6E6"/>
<path d="M641.439 284.349H640.03C639.82 284.349 639.649 284.522 639.649 284.736V285.284C639.649 285.498 639.82 285.671 640.03 285.671H641.439C641.649 285.671 641.82 285.498 641.82 285.284V284.736C641.82 284.522 641.649 284.349 641.439 284.349Z" fill="#E6E6E6"/>
<path d="M576.282 286.552H574.873C574.663 286.552 574.493 286.725 574.493 286.939V287.487C574.493 287.701 574.663 287.874 574.873 287.874H576.282C576.492 287.874 576.663 287.701 576.663 287.487V286.939C576.663 286.725 576.492 286.552 576.282 286.552Z" fill="#E6E6E6"/>
<path d="M580.623 286.552H579.214C579.003 286.552 578.833 286.725 578.833 286.939V287.487C578.833 287.701 579.003 287.874 579.214 287.874H580.623C580.833 287.874 581.003 287.701 581.003 287.487V286.939C581.003 286.725 580.833 286.552 580.623 286.552Z" fill="#E6E6E6"/>
<path d="M584.963 286.552H583.554C583.344 286.552 583.173 286.725 583.173 286.939V287.487C583.173 287.701 583.344 287.874 583.554 287.874H584.963C585.173 287.874 585.344 287.701 585.344 287.487V286.939C585.344 286.725 585.173 286.552 584.963 286.552Z" fill="#E6E6E6"/>
<path d="M589.303 286.552H587.894C587.684 286.552 587.514 286.725 587.514 286.939V287.487C587.514 287.701 587.684 287.874 587.894 287.874H589.303C589.513 287.874 589.684 287.701 589.684 287.487V286.939C589.684 286.725 589.513 286.552 589.303 286.552Z" fill="#E6E6E6"/>
<path d="M593.644 286.552H592.235C592.024 286.552 591.854 286.725 591.854 286.939V287.487C591.854 287.701 592.024 287.874 592.235 287.874H593.644C593.854 287.874 594.024 287.701 594.024 287.487V286.939C594.024 286.725 593.854 286.552 593.644 286.552Z" fill="#E6E6E6"/>
<path d="M597.984 286.552H596.575C596.365 286.552 596.194 286.725 596.194 286.939V287.487C596.194 287.701 596.365 287.874 596.575 287.874H597.984C598.194 287.874 598.365 287.701 598.365 287.487V286.939C598.365 286.725 598.194 286.552 597.984 286.552Z" fill="#E6E6E6"/>
<path d="M602.325 286.552H600.916C600.706 286.552 600.535 286.725 600.535 286.939V287.487C600.535 287.701 600.706 287.874 600.916 287.874H602.325C602.535 287.874 602.705 287.701 602.705 287.487V286.939C602.705 286.725 602.535 286.552 602.325 286.552Z" fill="#E6E6E6"/>
<path d="M606.665 286.552H605.256C605.046 286.552 604.875 286.725 604.875 286.939V287.487C604.875 287.701 605.046 287.874 605.256 287.874H606.665C606.875 287.874 607.046 287.701 607.046 287.487V286.939C607.046 286.725 606.875 286.552 606.665 286.552Z" fill="#E6E6E6"/>
<path d="M611.005 286.552H609.597C609.386 286.552 609.216 286.725 609.216 286.939V287.487C609.216 287.701 609.386 287.874 609.597 287.874H611.005C611.216 287.874 611.386 287.701 611.386 287.487V286.939C611.386 286.725 611.216 286.552 611.005 286.552Z" fill="#E6E6E6"/>
<path d="M615.346 286.552H613.937C613.727 286.552 613.556 286.725 613.556 286.939V287.487C613.556 287.701 613.727 287.874 613.937 287.874H615.346C615.556 287.874 615.726 287.701 615.726 287.487V286.939C615.726 286.725 615.556 286.552 615.346 286.552Z" fill="#E6E6E6"/>
<path d="M619.686 286.552H618.277C618.067 286.552 617.896 286.725 617.896 286.939V287.487C617.896 287.701 618.067 287.874 618.277 287.874H619.686C619.896 287.874 620.067 287.701 620.067 287.487V286.939C620.067 286.725 619.896 286.552 619.686 286.552Z" fill="#E6E6E6"/>
<path d="M624.026 286.552H622.618C622.407 286.552 622.237 286.725 622.237 286.939V287.487C622.237 287.701 622.407 287.874 622.618 287.874H624.026C624.237 287.874 624.407 287.701 624.407 287.487V286.939C624.407 286.725 624.237 286.552 624.026 286.552Z" fill="#E6E6E6"/>
<path d="M628.367 286.552H626.958C626.748 286.552 626.577 286.725 626.577 286.939V287.487C626.577 287.701 626.748 287.874 626.958 287.874H628.367C628.577 287.874 628.747 287.701 628.747 287.487V286.939C628.747 286.725 628.577 286.552 628.367 286.552Z" fill="#E6E6E6"/>
<path d="M632.707 286.552H631.298C631.088 286.552 630.917 286.725 630.917 286.939V287.487C630.917 287.701 631.088 287.874 631.298 287.874H632.707C632.917 287.874 633.088 287.701 633.088 287.487V286.939C633.088 286.725 632.917 286.552 632.707 286.552Z" fill="#E6E6E6"/>
<path d="M637.047 286.552H635.638C635.428 286.552 635.258 286.725 635.258 286.939V287.487C635.258 287.701 635.428 287.874 635.638 287.874H637.047C637.258 287.874 637.428 287.701 637.428 287.487V286.939C637.428 286.725 637.258 286.552 637.047 286.552Z" fill="#E6E6E6"/>
<path d="M641.388 286.552H639.979C639.769 286.552 639.599 286.725 639.599 286.939V287.487C639.599 287.701 639.769 287.874 639.979 287.874H641.388C641.598 287.874 641.769 287.701 641.769 287.487V286.939C641.769 286.725 641.598 286.552 641.388 286.552Z" fill="#E6E6E6"/>
<path d="M612.307 289.196H595.707C595.497 289.196 595.327 289.369 595.327 289.582V290.131C595.327 290.345 595.497 290.518 595.707 290.518H612.307C612.518 290.518 612.688 290.345 612.688 290.131V289.582C612.688 289.369 612.518 289.196 612.307 289.196Z" fill="#E6E6E6"/>
<path d="M660.529 182.736H549.709C549.594 182.733 549.485 182.685 549.404 182.601C549.323 182.517 549.278 182.405 549.278 182.288C549.278 182.171 549.323 182.059 549.404 181.975C549.485 181.892 549.594 181.843 549.709 181.841H660.529C660.645 181.843 660.754 181.892 660.835 181.975C660.915 182.059 660.96 182.171 660.96 182.288C660.96 182.405 660.915 182.517 660.835 182.601C660.754 182.685 660.645 182.733 660.529 182.736Z" fill="#592B2B"/>
<path d="M557.253 179.557C558.679 179.557 559.835 178.357 559.835 176.876C559.835 175.396 558.679 174.196 557.253 174.196C555.826 174.196 554.67 175.396 554.67 176.876C554.67 178.357 555.826 179.557 557.253 179.557Z" fill="#CCCCCC"/>
<path d="M566.175 179.557C567.601 179.557 568.758 178.357 568.758 176.876C568.758 175.396 567.601 174.196 566.175 174.196C564.749 174.196 563.592 175.396 563.592 176.876C563.592 178.357 564.749 179.557 566.175 179.557Z" fill="#CCCCCC"/>
<path d="M575.097 179.557C576.523 179.557 577.68 178.357 577.68 176.876C577.68 175.396 576.523 174.196 575.097 174.196C573.67 174.196 572.514 175.396 572.514 176.876C572.514 178.357 573.67 179.557 575.097 179.557Z" fill="#CCCCCC"/>
<path d="M655.157 174.86H648.82C648.694 174.863 648.574 174.915 648.486 175.007C648.398 175.098 648.349 175.22 648.349 175.348C648.349 175.475 648.398 175.598 648.486 175.689C648.574 175.78 648.694 175.832 648.82 175.835H655.157C655.283 175.832 655.403 175.78 655.491 175.689C655.579 175.598 655.628 175.475 655.628 175.348C655.628 175.22 655.579 175.098 655.491 175.007C655.403 174.915 655.283 174.863 655.157 174.86Z" fill="#CCCCCC"/>
<path d="M655.157 176.689H648.819C648.694 176.692 648.574 176.744 648.486 176.835C648.398 176.926 648.349 177.049 648.349 177.176C648.349 177.304 648.398 177.426 648.486 177.517C648.574 177.608 648.694 177.661 648.819 177.663H655.157C655.283 177.661 655.402 177.608 655.49 177.517C655.578 177.426 655.628 177.304 655.628 177.176C655.628 177.049 655.578 176.926 655.49 176.835C655.402 176.744 655.283 176.692 655.157 176.689Z" fill="#CCCCCC"/>
<path d="M655.157 178.515H648.82C648.694 178.518 648.574 178.57 648.486 178.661C648.398 178.752 648.349 178.875 648.349 179.002C648.349 179.13 648.398 179.252 648.486 179.344C648.574 179.435 648.694 179.487 648.82 179.49H655.157C655.283 179.487 655.403 179.435 655.491 179.344C655.579 179.252 655.628 179.13 655.628 179.002C655.628 178.875 655.579 178.752 655.491 178.661C655.403 178.57 655.283 178.518 655.157 178.515Z" fill="#CCCCCC"/>
<path d="M614.067 207.109H600.219C599.179 207.109 598.336 207.965 598.336 209.021C598.336 210.077 599.179 210.933 600.219 210.933H614.067C615.107 210.933 615.95 210.077 615.95 209.021C615.95 207.965 615.107 207.109 614.067 207.109Z" fill="#4CAF4F"/>
<path d="M623.012 214.757H591.273C590.233 214.757 589.39 215.612 589.39 216.668C589.39 217.724 590.233 218.58 591.273 218.58H623.012C624.052 218.58 624.895 217.724 624.895 216.668C624.895 215.612 624.052 214.757 623.012 214.757Z" fill="#E6E6E6"/>
<path d="M623.012 222.404H591.273C590.233 222.404 589.39 223.26 589.39 224.315C589.39 225.371 590.233 226.227 591.273 226.227H623.012C624.052 226.227 624.895 225.371 624.895 224.315C624.895 223.26 624.052 222.404 623.012 222.404Z" fill="#E6E6E6"/>
<path d="M409.184 341.54L402.8 338.44L411.569 311.353L420.991 315.927L409.184 341.54Z" fill="#FFB6B6"/>
<path d="M451.982 337.173C451.517 337.468 451.053 337.758 450.584 338.049C449.651 338.63 448.709 339.201 447.766 339.762C447.293 340.043 446.814 340.324 446.341 340.6V340.614L446.313 340.619L446.303 340.624L445.581 340.805L444.545 338.025L444.067 336.745L443.391 334.931L442.153 331.613L435.636 314.144L445.769 311.607L446.149 313.182H446.153L446.341 313.963L449.881 328.538L450.603 331.518L450.627 331.608L451.063 333.389L451.438 334.931L451.855 336.654L451.982 337.173Z" fill="#FFB6B6"/>
<path d="M512.429 275.824C511.787 276.872 511.13 277.914 510.469 278.947C509.24 280.87 507.979 282.765 506.685 284.631C506.685 284.635 506.68 284.635 506.676 284.64C505.921 285.35 505.087 285.968 504.19 286.482C504.153 286.511 504.111 286.53 504.073 286.554C503.413 286.924 502.711 287.21 501.982 287.406C501.719 287.472 501.452 287.539 501.189 287.606C500.242 287.834 499.304 288.029 498.371 288.201C496.711 288.5 495.07 288.715 493.438 288.848C493.307 288.862 493.176 288.872 493.045 288.881C486.335 289.381 479.803 288.577 472.985 287.258C469.618 286.611 466.181 285.835 462.622 285.03C461.459 284.764 460.292 284.502 459.11 284.24C459.021 284.221 458.927 284.197 458.833 284.178C457.145 283.802 455.429 283.431 453.671 283.064C451.457 282.603 449.174 282.155 446.801 281.732L446.97 285.126C447.111 287.736 447.645 290.31 448.555 292.756C449.568 295.764 450.37 298.144 448.677 303.1L447.861 305.499C448.284 306.69 448.429 307.965 448.285 309.222C448.141 310.48 447.712 311.687 447.031 312.748L446.867 313L453.671 330.475L454.111 331.607H450.627L446.342 331.612H439.078L428.598 310.268L428.097 309.249V309.197L429.18 268.18C429.194 267.818 429.222 267.451 429.269 267.09C429.46 265.445 429.972 263.856 430.774 262.414C431.577 260.972 432.655 259.707 433.944 258.693C435.179 257.713 436.595 256.992 438.107 256.572C439.62 256.152 441.2 256.041 442.755 256.246L446.342 256.718L453.671 257.679L458.833 258.36L458.936 258.374L474.162 260.373L475.254 255.851L475.456 255.775L481.866 253.39L504.036 245.141L504.092 245.122L505.55 244.579L505.724 244.865C505.775 244.951 505.827 245.036 505.874 245.122C507.315 247.745 508.489 250.511 509.376 253.376C510.869 258.057 512.098 262.82 513.057 267.642C513.099 267.851 513.137 268.042 513.17 268.213L513.184 268.266C513.198 268.346 513.207 268.399 513.212 268.413C513.651 270.909 513.38 273.48 512.429 275.824Z" fill="#4D4D4D"/>
<path d="M513.365 260.708C513.294 260.404 513.205 260.094 513.111 259.794C512.367 257.523 511.5 255.295 510.514 253.121C509.407 250.646 508.08 247.994 506.5 245.124C505.736 243.734 504.913 242.288 504.033 240.788C503.593 240.035 503.135 239.269 502.66 238.488C502.641 238.452 502.621 238.418 502.599 238.384L502.463 238.155L480.527 241.135L472.359 242.244L471.871 246.376L471.754 247.399C471.749 247.399 471.749 247.399 471.754 247.404L471.426 250.193V250.198L470.99 253.882L470.952 253.878L458.831 252.283L446.34 250.641L439.63 249.76C438.075 249.555 436.495 249.665 434.982 250.085C433.469 250.505 432.054 251.226 430.819 252.207C429.53 253.222 428.452 254.487 427.65 255.928C426.847 257.37 426.335 258.959 426.144 260.604C426.102 260.937 426.074 261.28 426.06 261.618L419.729 276.845C415.941 285.952 413.529 295.587 412.574 305.424L407.932 320.49L408.593 320.552L418.43 321.48L421.028 321.727L426.749 313.25C427.401 312.284 428.019 311.289 428.596 310.27C429.546 308.606 430.39 306.883 431.124 305.11L443.498 275.217C444.455 275.384 445.402 275.542 446.34 275.693C450.677 276.407 454.841 276.989 458.831 277.44C471.806 278.911 483.041 279.025 493.042 277.778C495.851 277.43 498.566 276.974 501.187 276.407C502.148 276.202 503.097 275.982 504.033 275.745C504.254 275.693 504.47 275.641 504.685 275.584C506.623 275.076 508.405 274.084 509.867 272.696C511.329 271.309 512.425 269.572 513.055 267.644C513.807 265.409 513.914 263.003 513.365 260.708Z" fill="#4D4D4D"/>
<path d="M411.223 337.117L404.316 333.756L403.233 333.228L401.503 337.54L389.424 340.239C388.827 340.372 388.287 340.695 387.883 341.162C387.48 341.628 387.234 342.214 387.182 342.832C387.13 343.45 387.273 344.07 387.592 344.599C387.911 345.129 388.389 345.541 388.955 345.775L400.757 350.664L404.504 347.241L403.585 351.835L408.03 353.677L412.902 337.935L411.223 337.117Z" fill="#4D4D4D"/>
<path d="M453.67 330.475L454.112 331.608H453.67V330.475Z" fill="#4D4D4D"/>
<path d="M451.265 331.85L444.028 334.395L442.892 334.793L444.651 339.094L437.939 349.639C437.607 350.16 437.447 350.775 437.484 351.395C437.521 352.015 437.752 352.606 438.143 353.083C438.535 353.56 439.066 353.897 439.66 354.045C440.253 354.194 440.878 354.146 441.443 353.908L453.218 348.951L453.508 343.843L456.039 347.764L460.474 345.898L453.025 331.232L451.265 331.85Z" fill="#4D4D4D"/>
<path d="M407.339 174.353C407.682 175.031 408.168 175.625 408.762 176.093C409.355 176.56 410.043 176.89 410.776 177.059C411.509 177.227 412.269 177.231 413.003 177.069C413.738 176.907 414.428 176.583 415.026 176.121L430.244 186.377L430.273 176.741L415.817 168.479C414.986 167.511 413.834 166.886 412.579 166.723C411.324 166.56 410.053 166.869 409.008 167.593C407.963 168.317 407.216 169.405 406.909 170.651C406.601 171.897 406.754 173.214 407.339 174.353Z" fill="#FFB6B6"/>
<path d="M418.708 178.806L425.808 170.606L454.719 188.029L493.043 184.466C494.937 184.29 496.847 184.54 498.635 185.197C500.424 185.854 502.048 186.903 503.393 188.269C504.737 189.636 505.769 191.285 506.415 193.102C507.06 194.918 507.304 196.857 507.129 198.78C506.809 202.252 505.144 205.454 502.501 207.683C499.858 209.911 496.452 210.984 493.03 210.667L449.868 206.611L418.708 178.806Z" fill="#CCCCCC"/>
<path d="M507.658 178.933L507.591 178.848C502.2 178.308 496.77 179.367 491.96 181.897C487.15 184.427 483.166 188.32 480.492 193.102L477.239 198.918C466.719 211.975 474.364 220.978 474.821 222.317L471.169 239.41L471.988 245.13L472.397 246.829L514.08 268.939C516.454 257.364 514.159 247.5 505.513 239.965L513.878 213.543C515.733 207.7 516.136 201.483 515.05 195.445C513.965 189.406 511.426 183.734 507.658 178.933Z" fill="#CCCCCC"/>
<path d="M474.514 307.299H461.144C460.408 307.298 459.698 307.028 459.143 306.539C458.587 306.049 458.225 305.372 458.122 304.633C457.296 298.466 457.296 292.214 458.122 286.047C458.224 285.316 458.579 284.647 459.123 284.158C459.668 283.67 460.366 283.394 461.092 283.382C465.299 281.467 469.83 281.468 474.56 283.381C475.001 283.387 475.435 283.491 475.832 283.685C476.229 283.88 476.579 284.16 476.858 284.506C477.148 284.866 477.357 285.288 477.467 285.74C477.577 286.192 477.587 286.663 477.495 287.12C476.421 292.546 476.421 298.134 477.495 303.56C477.587 304.016 477.577 304.488 477.467 304.94C477.357 305.392 477.148 305.814 476.858 306.174C476.574 306.526 476.216 306.81 475.811 307.005C475.406 307.199 474.963 307.3 474.514 307.299Z" fill="#4CAF4F"/>
<path d="M473.114 290.468H461.86C461.767 290.468 461.675 290.451 461.589 290.415C461.503 290.38 461.425 290.327 461.359 290.261C461.293 290.194 461.24 290.115 461.205 290.028C461.169 289.941 461.15 289.848 461.15 289.754C461.15 289.659 461.169 289.566 461.205 289.479C461.24 289.392 461.293 289.313 461.359 289.246C461.425 289.18 461.503 289.128 461.589 289.092C461.675 289.057 461.767 289.039 461.86 289.04H473.114C473.207 289.039 473.299 289.057 473.385 289.092C473.471 289.128 473.549 289.18 473.615 289.246C473.681 289.313 473.733 289.392 473.769 289.479C473.805 289.566 473.823 289.659 473.823 289.754C473.823 289.848 473.805 289.941 473.769 290.028C473.733 290.115 473.681 290.194 473.615 290.261C473.549 290.327 473.471 290.38 473.385 290.415C473.299 290.451 473.207 290.468 473.114 290.468Z" fill="white"/>
<path d="M473.114 296.18H461.86C461.767 296.18 461.675 296.163 461.589 296.127C461.503 296.092 461.425 296.039 461.359 295.973C461.293 295.906 461.24 295.827 461.205 295.74C461.169 295.653 461.15 295.56 461.15 295.466C461.15 295.371 461.169 295.278 461.205 295.191C461.24 295.104 461.293 295.025 461.359 294.959C461.425 294.892 461.503 294.84 461.589 294.804C461.675 294.769 461.767 294.751 461.86 294.752H473.114C473.207 294.751 473.299 294.769 473.385 294.804C473.471 294.84 473.549 294.892 473.615 294.959C473.681 295.025 473.733 295.104 473.769 295.191C473.805 295.278 473.823 295.371 473.823 295.466C473.823 295.56 473.805 295.653 473.769 295.74C473.733 295.827 473.681 295.906 473.615 295.973C473.549 296.039 473.471 296.092 473.385 296.127C473.299 296.163 473.207 296.18 473.114 296.18Z" fill="white"/>
<path d="M473.114 301.892H461.86C461.767 301.893 461.675 301.875 461.589 301.839C461.503 301.804 461.425 301.751 461.359 301.685C461.293 301.619 461.24 301.54 461.205 301.453C461.169 301.366 461.15 301.272 461.15 301.178C461.15 301.083 461.169 300.99 461.205 300.903C461.24 300.816 461.293 300.737 461.359 300.671C461.425 300.604 461.503 300.552 461.589 300.516C461.675 300.481 461.767 300.463 461.86 300.464H473.114C473.207 300.463 473.299 300.481 473.385 300.516C473.471 300.552 473.55 300.604 473.616 300.671C473.682 300.737 473.734 300.816 473.77 300.903C473.806 300.99 473.824 301.083 473.824 301.178C473.824 301.272 473.806 301.366 473.77 301.453C473.734 301.54 473.682 301.619 473.616 301.685C473.55 301.751 473.471 301.804 473.385 301.839C473.299 301.875 473.207 301.893 473.114 301.892Z" fill="white"/>
<path d="M409.79 179.057H396.42C395.684 179.056 394.974 178.787 394.418 178.297C393.863 177.807 393.501 177.131 393.398 176.392C392.572 170.224 392.572 163.972 393.398 157.805C393.5 157.074 393.855 156.405 394.399 155.917C394.944 155.428 395.642 155.153 396.368 155.14C400.575 153.226 405.105 153.226 409.836 155.14C410.277 155.145 410.711 155.249 411.108 155.444C411.504 155.638 411.855 155.918 412.134 156.264C412.424 156.625 412.632 157.046 412.743 157.498C412.853 157.95 412.863 158.422 412.771 158.878C411.697 164.304 411.697 169.892 412.771 175.318C412.863 175.775 412.853 176.246 412.743 176.698C412.632 177.15 412.424 177.572 412.134 177.932C411.85 178.284 411.492 178.568 411.087 178.763C410.681 178.957 410.239 179.058 409.79 179.057Z" fill="#4CAF4F"/>
<path d="M408.39 162.226H397.136C397.043 162.227 396.951 162.209 396.865 162.173C396.779 162.138 396.701 162.085 396.635 162.019C396.569 161.953 396.517 161.874 396.481 161.787C396.445 161.7 396.427 161.606 396.427 161.512C396.427 161.418 396.445 161.324 396.481 161.237C396.517 161.15 396.569 161.071 396.635 161.005C396.701 160.938 396.779 160.886 396.865 160.85C396.951 160.815 397.043 160.797 397.136 160.798H408.39C408.483 160.797 408.575 160.815 408.661 160.85C408.747 160.886 408.825 160.938 408.891 161.005C408.957 161.071 409.01 161.15 409.045 161.237C409.081 161.324 409.1 161.418 409.1 161.512C409.1 161.606 409.081 161.7 409.045 161.787C409.01 161.874 408.957 161.953 408.891 162.019C408.825 162.085 408.747 162.138 408.661 162.173C408.575 162.209 408.483 162.227 408.39 162.226Z" fill="white"/>
<path d="M408.39 167.938H397.136C397.043 167.939 396.951 167.921 396.865 167.885C396.779 167.85 396.701 167.797 396.635 167.731C396.569 167.665 396.517 167.586 396.481 167.499C396.445 167.412 396.427 167.318 396.427 167.224C396.427 167.13 396.445 167.036 396.481 166.949C396.517 166.862 396.569 166.783 396.635 166.717C396.701 166.65 396.779 166.598 396.865 166.563C396.951 166.527 397.043 166.509 397.136 166.51H408.39C408.483 166.509 408.575 166.527 408.661 166.563C408.747 166.598 408.825 166.65 408.891 166.717C408.957 166.783 409.01 166.862 409.045 166.949C409.081 167.036 409.1 167.13 409.1 167.224C409.1 167.318 409.081 167.412 409.045 167.499C409.01 167.586 408.957 167.665 408.891 167.731C408.825 167.797 408.747 167.85 408.661 167.885C408.575 167.921 408.483 167.939 408.39 167.938Z" fill="white"/>
<path d="M408.39 173.65H397.136C397.043 173.651 396.951 173.633 396.865 173.598C396.779 173.562 396.701 173.51 396.635 173.443C396.569 173.377 396.516 173.298 396.48 173.211C396.445 173.124 396.426 173.03 396.426 172.936C396.426 172.842 396.445 172.748 396.48 172.661C396.516 172.574 396.569 172.495 396.635 172.429C396.701 172.362 396.779 172.31 396.865 172.275C396.951 172.239 397.043 172.221 397.136 172.222H408.39C408.483 172.221 408.575 172.239 408.661 172.275C408.747 172.31 408.826 172.362 408.892 172.429C408.958 172.495 409.01 172.574 409.046 172.661C409.082 172.748 409.1 172.842 409.1 172.936C409.1 173.03 409.082 173.124 409.046 173.211C409.01 173.298 408.958 173.377 408.892 173.443C408.826 173.51 408.747 173.562 408.661 173.598C408.575 173.633 408.483 173.651 408.39 173.65Z" fill="white"/>
<path d="M175.069 213.888H161.698C160.963 213.888 160.252 213.618 159.697 213.128C159.142 212.638 158.78 211.962 158.676 211.223C157.851 205.055 157.851 198.803 158.676 192.636C158.778 191.906 159.134 191.236 159.678 190.748C160.222 190.259 160.921 189.984 161.647 189.971C165.854 188.057 170.384 188.057 175.115 189.971C175.556 189.977 175.989 190.08 176.386 190.275C176.783 190.469 177.133 190.749 177.412 191.095C177.703 191.456 177.911 191.877 178.021 192.329C178.132 192.781 178.141 193.253 178.05 193.709C176.976 199.135 176.976 204.724 178.05 210.15C178.141 210.606 178.132 211.077 178.021 211.529C177.911 211.981 177.703 212.403 177.412 212.763C177.129 213.116 176.771 213.399 176.366 213.594C175.96 213.789 175.517 213.889 175.069 213.888Z" fill="#4CAF4F"/>
<path d="M173.669 197.057H162.415C162.322 197.058 162.23 197.04 162.144 197.005C162.058 196.969 161.98 196.917 161.914 196.85C161.848 196.784 161.795 196.705 161.76 196.618C161.724 196.531 161.706 196.437 161.706 196.343C161.706 196.249 161.724 196.155 161.76 196.068C161.795 195.981 161.848 195.902 161.914 195.836C161.98 195.77 162.058 195.717 162.144 195.682C162.23 195.646 162.322 195.628 162.415 195.629H173.669C173.762 195.628 173.854 195.646 173.94 195.682C174.026 195.717 174.104 195.77 174.17 195.836C174.236 195.902 174.289 195.981 174.324 196.068C174.36 196.155 174.378 196.249 174.378 196.343C174.378 196.437 174.36 196.531 174.324 196.618C174.289 196.705 174.236 196.784 174.17 196.85C174.104 196.917 174.026 196.969 173.94 197.005C173.854 197.04 173.762 197.058 173.669 197.057Z" fill="white"/>
<path d="M173.669 202.769H162.415C162.322 202.77 162.23 202.752 162.144 202.717C162.058 202.681 161.98 202.629 161.914 202.562C161.848 202.496 161.795 202.417 161.76 202.33C161.724 202.243 161.706 202.149 161.706 202.055C161.706 201.961 161.724 201.867 161.76 201.78C161.795 201.693 161.848 201.614 161.914 201.548C161.98 201.482 162.058 201.429 162.144 201.394C162.23 201.358 162.322 201.34 162.415 201.341H173.669C173.762 201.34 173.854 201.358 173.94 201.394C174.026 201.429 174.104 201.482 174.17 201.548C174.236 201.614 174.289 201.693 174.324 201.78C174.36 201.867 174.378 201.961 174.378 202.055C174.378 202.149 174.36 202.243 174.324 202.33C174.289 202.417 174.236 202.496 174.17 202.562C174.104 202.629 174.026 202.681 173.94 202.717C173.854 202.752 173.762 202.77 173.669 202.769Z" fill="white"/>
<path d="M173.669 208.481H162.415C162.322 208.482 162.23 208.464 162.144 208.429C162.058 208.393 161.979 208.341 161.913 208.274C161.847 208.208 161.795 208.129 161.759 208.042C161.723 207.955 161.705 207.861 161.705 207.767C161.705 207.673 161.723 207.579 161.759 207.492C161.795 207.405 161.847 207.326 161.913 207.26C161.979 207.193 162.058 207.141 162.144 207.106C162.23 207.07 162.322 207.052 162.415 207.053H173.669C173.762 207.052 173.854 207.07 173.94 207.106C174.026 207.141 174.104 207.193 174.17 207.26C174.236 207.326 174.289 207.405 174.325 207.492C174.36 207.579 174.379 207.673 174.379 207.767C174.379 207.861 174.36 207.955 174.325 208.042C174.289 208.129 174.236 208.208 174.17 208.274C174.104 208.341 174.026 208.393 173.94 208.429C173.854 208.464 173.762 208.482 173.669 208.481Z" fill="white"/>
<path d="M478.432 289.948C479.079 289.56 479.634 289.033 480.059 288.403C480.483 287.774 480.767 287.058 480.889 286.305C481.011 285.552 480.97 284.782 480.767 284.047C480.564 283.313 480.205 282.632 479.715 282.054L488.897 266.024L479.42 266.566L472.154 281.705C471.251 282.605 470.705 283.81 470.618 285.091C470.532 286.372 470.912 287.641 471.686 288.657C472.46 289.673 473.574 290.366 474.817 290.604C476.061 290.842 477.347 290.608 478.432 289.948Z" fill="#FFB6B6"/>
<path d="M482.137 278.163L473.652 271.454L489.07 241.124L483.293 202.499C483.007 200.59 483.139 198.64 483.68 196.789C484.22 194.937 485.155 193.229 486.419 191.785C487.682 190.342 489.243 189.198 490.991 188.436C492.739 187.674 494.631 187.312 496.532 187.376C499.966 187.494 503.213 188.991 505.561 191.537C507.91 194.083 509.167 197.471 509.057 200.957L507.63 244.937L482.137 278.163Z" fill="#CCCCCC"/>
<path d="M72.0428 269.876C72.5772 269.331 72.9873 268.673 73.2443 267.949C73.5013 267.226 73.5988 266.454 73.5301 265.688C73.4614 264.922 73.2281 264.181 72.8466 263.516C72.4651 262.851 71.9447 262.28 71.3221 261.842L79.5739 220.234L70.4613 223.204L63.856 263.449C63.2 264.56 62.9682 265.876 63.2044 267.149C63.4405 268.421 64.1284 269.562 65.1375 270.354C66.1466 271.146 67.4069 271.535 68.6796 271.447C69.9522 271.359 71.1489 270.8 72.0428 269.876Z" fill="#9E616A"/>
<path d="M84.227 181.845L78.5731 177.513C78.5731 177.513 73.5854 177.154 72.702 186.285C71.8186 195.416 70.0048 213.211 70.0048 213.211L61.353 253.889L73.3294 256.558L82.596 212.659L88.1551 199.622L84.227 181.845Z" fill="#CCCCCC"/>
<path d="M74.9058 248.269L106.766 247.73L109.421 225.629H74.9058V248.269Z" fill="#9E616A"/>
<path d="M103.58 384.271H110.935L114.434 355.472L103.579 355.473L103.58 384.271Z" fill="#9E616A"/>
<path d="M57.5015 384.963L64.8566 384.91L68.1567 356.087L58.5909 358.314L57.5015 384.963Z" fill="#9E616A"/>
<path d="M80.5053 206.596L78.8389 210.994L79.1718 215.393L111.789 226.861L110.171 207.611L106.504 203.212L80.5053 206.596Z" fill="#FFB6B6"/>
<path d="M94.4986 167.011C100.932 167.011 106.148 161.717 106.148 155.185C106.148 148.654 100.932 143.36 94.4986 143.36C88.0648 143.36 82.8491 148.654 82.8491 155.185C82.8491 161.717 88.0648 167.011 94.4986 167.011Z" fill="#9E616A"/>
<path d="M101.756 380.588L113.383 379.884V384.941L124.437 392.691C124.983 393.074 125.394 393.623 125.61 394.26C125.827 394.897 125.837 395.587 125.639 396.23C125.442 396.873 125.047 397.435 124.513 397.835C123.978 398.234 123.332 398.449 122.669 398.449H108.826L106.44 393.447L105.509 398.449H100.29L101.756 380.588Z" fill="#4D4D4D"/>
<path d="M54.985 381.297L66.6068 380.51L66.6417 385.567L77.749 393.238C78.2976 393.617 78.7126 394.164 78.9334 394.799C79.1541 395.435 79.1691 396.125 78.9761 396.769C78.783 397.414 78.3922 397.979 77.8605 398.382C77.3288 398.784 76.6841 399.004 76.0206 399.009L62.1786 399.107L59.7582 394.122L58.8611 399.131L53.6421 399.168L54.985 381.297Z" fill="#4D4D4D"/>
<path d="M55.2125 362.882L60.5683 319.424L66.9404 273.604C62.274 264.807 72.7815 237.488 72.7815 237.488L74.2647 237.56L107.835 243.989L107.828 243.957C114.694 262.968 116.969 272.36 116.593 292.605L115.24 365.382H115.665C116.369 365.382 117.044 365.666 117.542 366.172C118.04 366.677 118.32 367.363 118.32 368.078C118.32 368.792 118.04 369.478 117.542 369.983C117.044 370.489 116.369 370.773 115.665 370.773H102.389C102.04 370.773 101.695 370.704 101.372 370.569C101.049 370.434 100.756 370.235 100.509 369.985C100.262 369.735 100.066 369.437 99.9323 369.11C99.7986 368.783 99.7298 368.432 99.7298 368.078C99.7298 367.723 99.7986 367.372 99.9323 367.045C100.066 366.718 100.262 366.42 100.509 366.17C100.756 365.92 101.049 365.721 101.372 365.586C101.695 365.451 102.04 365.382 102.389 365.382H102.732L90.5466 278.726L80.2156 315.111L68.5334 362.548C72.7815 361.47 72.1219 363.968 72.1219 365.382C72.1219 366.097 71.8422 366.783 71.3442 367.288C70.8463 367.794 70.171 368.078 69.4668 368.078H56.1917C55.5742 368.078 54.9759 367.86 54.4999 367.461C54.0238 367.062 53.6999 366.507 53.5839 365.891C53.4679 365.275 53.5671 364.638 53.8644 364.089C54.1617 363.539 54.6384 363.113 55.2125 362.882Z" fill="#4D4D4D"/>
<path d="M70.1674 238.903L71.2294 228.122C71.3397 227.682 71.5843 227.289 71.9282 226.999C72.2721 226.709 72.6976 226.537 73.1438 226.508C73.5863 221.372 75.448 199.216 75.5592 198.25L75.5636 198.209L76.4102 179.85C76.4409 179.184 76.7125 178.552 77.1732 178.075C77.6338 177.599 78.2511 177.312 78.9073 177.268L83.3787 176.971C83.4401 176.969 83.4982 176.943 83.5409 176.898C83.5836 176.853 83.6074 176.794 83.6074 176.731C83.6074 176.23 83.7047 175.734 83.8936 175.271C84.0826 174.807 84.3596 174.387 84.7088 174.032C85.0579 173.678 85.4725 173.396 85.9287 173.205C86.3849 173.013 86.8739 172.914 87.3677 172.914H100.606C101.464 172.914 102.292 173.232 102.935 173.808C103.577 174.385 103.991 175.179 104.098 176.043C104.104 176.102 104.132 176.157 104.176 176.197C104.22 176.236 104.277 176.258 104.336 176.256H104.337C105.842 176.225 107.307 176.742 108.468 177.713C109.629 178.685 110.408 180.047 110.665 181.552C112.475 192.242 116.102 216.504 114.308 229.992C113.684 234.688 115.03 230.969 115.266 234.898C115.289 235.277 115.239 235.658 115.117 236.018C114.995 236.377 114.805 236.709 114.557 236.994C115.065 237.182 115.48 237.565 115.711 238.061C115.943 238.557 115.972 239.126 115.793 239.644L116.026 239.586C115.958 239.86 115.837 240.119 115.67 240.346C115.504 240.573 115.295 240.765 115.055 240.91C114.816 241.055 114.551 241.151 114.275 241.192C113.999 241.233 113.717 241.219 113.447 241.15L78.8113 245.914C77.6738 245.623 69.8806 240.058 70.1674 238.903Z" fill="#CCCCCC"/>
<path d="M162.719 195.07C162.502 195.807 162.128 196.486 161.624 197.061C161.121 197.636 160.499 198.091 159.803 198.395C159.107 198.7 158.354 198.845 157.597 198.822C156.839 198.799 156.096 198.607 155.42 198.261L142.03 210.666L140.252 201.119L153.248 190.834C153.897 189.718 154.925 188.883 156.14 188.487C157.354 188.09 158.67 188.159 159.837 188.682C161.004 189.204 161.942 190.142 162.473 191.32C163.005 192.497 163.092 193.832 162.719 195.07Z" fill="#9E616A"/>
<path d="M116.114 185.588C116.114 185.588 111.445 174.877 105.548 177.006C99.6513 179.135 102.696 189.528 102.696 189.528L124.851 223.418C124.851 223.418 156.807 202.608 152.921 202.461C149.035 202.314 147.873 195.14 147.873 195.14L130.984 203.706L130.412 200.657L129.496 201.586L127.133 199.698L116.114 185.588Z" fill="#CCCCCC"/>
<path d="M498.048 173.821C507.03 173.821 514.312 166.429 514.312 157.311C514.312 148.192 507.03 140.8 498.048 140.8C489.065 140.8 481.784 148.192 481.784 157.311C481.784 166.429 489.065 173.821 498.048 173.821Z" fill="#FFB6B6"/>
<path d="M550.245 181.606C548.368 184.306 545.629 186.264 542.492 187.147C541.237 187.526 539.941 187.75 538.632 187.813C538.471 186.311 538.084 184.843 537.485 183.46C537.546 184.932 537.344 186.403 536.89 187.803C534.925 187.689 533.004 187.167 531.247 186.268C529.521 185.386 528.021 184.109 526.866 182.536C525.711 180.964 524.933 179.14 524.594 177.209C523.905 172.693 525.922 168.258 526.651 163.749C527.384 159.24 526.009 153.529 521.661 152.344C518.349 151.441 518.721 151.831 515.968 153.906C518.831 158.204 508.255 173.954 503.927 172.581C501.48 171.804 499.913 169.525 499.408 169.525C496.006 175.474 502.411 185.497 495.956 187.578L496.488 187.039C500.384 182.173 492.24 171.874 496.137 167.009C497.224 165.647 498.381 164.034 498.06 162.313C497.755 160.676 495.197 159.81 494.447 161.155C495.795 158.021 493.805 153.838 490.511 153.033C487.584 152.317 487.637 153.199 484.701 153.583C484.509 152.295 484.15 151.038 483.634 149.845C483.688 151.13 483.54 152.416 483.196 153.654C482.158 153.634 481.156 153.266 480.346 152.609C477.951 150.649 478.436 146.534 480.573 144.29C482.714 142.045 485.895 141.237 488.929 140.714C489.81 134.48 506.755 133.83 509.001 140.059C509.957 135.407 515.694 132.993 520.152 134.436C524.611 135.879 527.705 140.107 529.334 144.561C530.963 149.013 531.418 153.804 532.421 158.442C533.424 163.08 535.12 167.803 538.612 170.964C542.104 174.122 547.794 175.168 551.473 172.234C552.008 173.785 552.176 175.441 551.962 177.069C551.749 178.697 551.161 180.251 550.245 181.606Z" fill="#4D4D4D"/>
<path d="M702.835 219.283L700.558 230.881C700.386 231.767 700.207 232.67 700.012 233.564C698.109 233.164 696.135 233.276 694.288 233.889C695.754 236.015 697.067 238.245 698.218 240.562C696.783 245.05 694.678 249.198 691.153 252.199C688.799 254.158 685.987 255.468 682.989 256.004C679.991 256.539 676.908 256.281 674.036 255.254L674.138 254.795C670.348 247.33 672.407 237.918 677.117 231.023C679.519 227.621 682.365 224.567 685.578 221.943C688.759 219.252 692.198 216.837 695.606 214.455C696.371 213.92 697.276 213.63 698.205 213.62C699.134 213.61 700.044 213.882 700.82 214.401C701.596 214.919 702.202 215.66 702.561 216.53C702.92 217.4 703.015 218.358 702.835 219.283Z" fill="#4CAF4F"/>
<path d="M674.847 283.159C673.889 276.071 672.903 268.894 673.575 261.73C674.173 255.369 676.084 249.156 679.977 244.061C682.043 241.362 684.557 239.049 687.406 237.227C688.149 236.752 688.832 237.946 688.093 238.42C683.164 241.582 679.351 246.252 677.204 251.756C674.834 257.877 674.453 264.549 674.865 271.051C675.112 274.983 675.635 278.888 676.163 282.791C676.206 282.967 676.18 283.154 676.092 283.312C676.003 283.47 675.859 283.587 675.688 283.641C675.514 283.688 675.328 283.664 675.171 283.574C675.014 283.484 674.899 283.334 674.85 283.158L674.847 283.159Z" fill="#4CAF4F"/>
<path d="M729.072 399.757L0.928746 400C0.682958 399.999 0.447486 399.9 0.273939 399.723C0.100392 399.546 0.00292969 399.307 0.00292969 399.057C0.00292969 398.808 0.100392 398.569 0.273939 398.392C0.447486 398.215 0.682958 398.116 0.928746 398.115L729.072 397.872C729.318 397.872 729.553 397.972 729.727 398.149C729.9 398.325 729.998 398.565 729.998 398.814C729.998 399.064 729.9 399.303 729.727 399.48C729.553 399.656 729.318 399.756 729.072 399.757Z" fill="#592B2B"/>
<path d="M80.7877 147.945C79.0011 148.815 77.0011 147.505 75.4586 146.208L76.0103 146.692C73.2841 149.384 72.0096 153.258 71.3868 157.071C70.7633 160.881 70.6938 164.777 69.9089 168.559C69.1233 172.337 67.4938 176.134 64.4501 178.448C60.3725 181.547 54.7486 181.348 49.7446 180.398C49.678 180.384 49.6158 180.374 49.5492 180.36C50.8956 176.414 51.4429 172.232 51.1583 168.066C49.817 172.241 47.5335 176.04 44.4899 179.161C41.1722 178.234 37.9338 177.037 34.8065 175.579C32.783 174.634 30.6042 173.341 30.0426 171.152C29.4796 168.979 30.787 166.701 32.5352 165.329C34.2834 163.957 36.4291 163.241 38.4207 162.264C40.409 161.292 42.3766 159.905 43.1727 157.811C45.009 152.995 39.7781 147.468 41.8167 142.734C42.822 140.406 45.2843 139.14 47.5986 138.163C51.1317 136.677 54.7598 135.435 58.458 134.445C61.7044 133.576 65.0942 132.9 68.4014 133.47C71.7086 134.04 74.9487 136.082 76.139 139.27C78.125 139.952 80.2335 140.72 81.5081 142.417C82.7821 144.11 82.6794 147.024 80.7877 147.945Z" fill="#4D4D4D"/>
<path d="M96.685 142.364C91.5737 138.267 87.4411 138.967 84.2531 141.512C83.7171 140.906 81.4363 142.572 80.6641 142.332L77.8709 147.655C76.4336 150.23 75.8439 152.858 76.0763 154.337C73.4324 161.864 79.702 166.947 87.1164 169.63C90.0748 170.709 93.3028 170.756 96.2908 169.765L96.382 168.483L96.9434 169.534C96.9434 169.534 103.722 183.702 105.323 184.338C104.351 181.779 101.788 169.615 101.073 167.079C100.092 163.63 100.762 158.149 101.338 154.789C101.698 152.717 101.717 150.599 101.394 148.521L101.38 148.431L102.966 151.68L106.524 149.409C105.164 145.388 105.137 140.578 96.685 142.364Z" fill="#4D4D4D"/>
</g>
<defs>
<clipPath id="clip0_20_222">
<rect width="730" height="400" fill="white"/>
</clipPath>
</defs>
</svg>
