<svg width="325" height="355" viewBox="0 0 325 355" fill="none" xmlns="http://www.w3.org/2000/svg">
<g clip-path="url(#clip0_10_29)">
<path d="M107.939 105.709C109.063 107.232 110.491 108.425 112.102 109.19L116.719 115.119L129.793 133.128L138.627 139.223L142.729 131.168L123.366 109.655L117.971 103.393C117.538 101.464 116.707 99.6804 115.546 98.1932C112.687 94.4264 108.666 93.0563 106.566 95.1313C104.465 97.2068 105.079 101.942 107.939 105.709Z" fill="#FFAFAF"/>
<path d="M186.966 123.603L178.463 107.462L142.289 125.192L122.516 106.764C122.516 106.764 114.671 114.472 114.391 114.747C114.111 115.023 134.33 146.967 135.766 146.929C137.201 146.891 186.966 123.603 186.966 123.603Z" fill="#DEDEDE"/>
<path d="M325 349.731C325 350.213 324.661 350.599 324.239 350.599H0.761322C0.339111 350.599 0 350.213 0 349.731C0 349.249 0.339111 348.863 0.761322 348.863H324.239C324.661 348.863 325 349.249 325 349.731Z" fill="black"/>
<path d="M105.317 0C79.5652 0 58.6143 22.4243 58.6143 49.9882C58.6143 57.6898 60.2965 65.3501 63.4885 72.2229H63.4501L64.2954 73.8991C71.4687 87.9946 75.452 104.047 75.8134 120.32C75.9231 125.281 79.4174 129.167 83.768 129.167H120.162C124.852 129.167 128.79 125.332 129.527 120.05C131.319 107.197 134.904 94.8126 140.181 83.2391C147.816 74.0737 152.021 62.2686 152.021 49.9882C152.021 22.4243 131.069 0 105.317 0ZM65.4272 73.2157L65.1245 72.5942C61.7026 65.6658 59.8939 57.8488 59.8939 49.9882C59.8939 23.2296 80.2709 1.45951 105.317 1.45951C130.364 1.45951 150.741 23.2296 150.741 49.9882C150.741 61.9258 146.64 73.4031 139.193 82.307L139.088 82.4737C133.725 94.2125 130.082 106.778 128.263 119.82C127.626 124.39 124.219 127.707 120.162 127.707H83.768C80.1169 127.707 77.1848 124.446 77.0923 120.283C76.7262 103.786 72.6927 87.5115 65.4272 73.2157Z" fill="#4D4D4D"/>
<path d="M78.7331 125.518H126.783C128.311 125.518 129.509 127.014 129.371 128.75L128.921 134.395C128.545 139.119 127.238 143.685 125.098 147.753C124.74 148.433 124.065 148.805 123.374 148.71C109.136 146.753 95.2048 146.689 81.6072 148.682C80.8634 148.791 80.1417 148.358 79.8063 147.592L79.4983 146.89C77.9581 143.376 77.0075 139.565 76.6957 135.652L76.1456 128.75C76.0073 127.014 77.2053 125.518 78.7331 125.518Z" fill="#4D4D4D"/>
<path d="M121.951 144.857H82.6054V174.067C82.6054 179.292 86.3241 183.534 90.9046 183.534H113.652C118.232 183.534 121.951 179.292 121.951 174.067V144.857Z" fill="#4D4D4D"/>
<path d="M97.2153 191.196H105.742C106.68 191.196 107.56 190.679 108.105 189.809L113.634 180.979H89.3231L94.8521 189.809C95.3972 190.679 96.2774 191.196 97.2153 191.196Z" fill="#4D4D4D"/>
<path d="M90.764 25.7797C97.0242 27.2583 103.284 28.7369 109.545 30.2154C112.36 30.8803 115.512 31.2254 118.07 32.8212C120.55 34.3683 122.286 37.6145 121.399 40.8642C120.552 43.9675 118.052 45.9142 115.37 46.6062C112.394 47.374 109.207 47.3686 106.173 47.6357C103.01 47.9142 99.8463 48.1928 96.6827 48.4713C95.1771 48.6039 93.6636 48.6955 92.1615 48.8719C91.681 48.9283 91.1572 48.9955 90.7627 49.3432C90.7686 49.338 90.6294 49.4375 90.7066 49.4528C90.7216 49.4557 90.7229 49.3402 90.7207 49.3324C90.6597 49.1159 90.6848 49.3208 90.734 49.3213C90.7512 49.3215 91.2044 49.6629 91.4572 49.7168C92.1392 49.8622 92.8916 49.7564 93.5827 49.743C95.0843 49.7138 96.5867 49.7462 98.0863 49.8394C101.104 50.0271 104.118 50.4553 107.087 51.104C110.007 51.742 112.913 52.5916 115.717 53.7232C118.436 54.8204 121.284 56.9039 121.358 60.5801C121.427 64.0328 118.801 66.4592 116.127 67.3265C114.751 67.7726 113.302 67.9343 111.891 68.1737C110.317 68.4408 108.743 68.7079 107.169 68.975C104.073 69.5002 100.978 70.0255 97.882 70.5508C96.308 70.8179 94.734 71.085 93.1599 71.3521C92.426 71.4766 91.6878 71.584 90.9563 71.726C90.6865 71.7784 90.4322 71.8751 90.1661 71.9374C90.3448 71.8956 90.1231 71.8959 90.1597 71.9434C90.0432 72.0248 90.0429 72.0125 90.1589 71.9065L90.238 71.774C90.4186 71.1956 90.4124 71.1194 90.0828 70.4354C90.0199 70.3049 89.892 70.4396 90.055 70.4191C90.2289 70.3971 89.9507 70.3942 90.136 70.4815C90.2286 70.5251 90.3293 70.5548 90.4257 70.5853C91.1546 70.8153 91.9182 70.9355 92.6601 71.1016C94.2022 71.447 95.7444 71.7924 97.2866 72.1378C100.32 72.8171 103.353 73.4962 106.385 74.1757C111.728 75.3727 117.402 76.9916 120.604 82.4905C121.301 83.6867 121.806 85.0651 122.059 86.4712C122.267 87.6284 121.765 88.8363 120.718 89.1642C119.769 89.4617 118.566 88.799 118.357 87.6352C117.343 81.9868 111.924 79.9582 107.468 78.8808C104.514 78.1666 101.542 77.5417 98.5794 76.8781C95.5932 76.2092 92.5596 75.6647 89.5989 74.8629C88.3542 74.5259 87.0038 73.653 86.6559 72.1392C86.275 70.4818 86.9922 68.8818 88.3092 68.1097C89.5724 67.3692 91.074 67.3107 92.4543 67.0765C93.9758 66.8183 95.4974 66.5602 97.019 66.302C100.115 65.7767 103.21 65.2514 106.306 64.7261C107.827 64.468 109.349 64.2098 110.871 63.9516C112.281 63.7122 113.731 63.5505 115.106 63.1044C116.037 62.8025 116.989 62.2846 117.4 61.2738C117.533 60.9479 117.567 60.7107 117.477 60.3442C117.352 59.841 117.007 59.3724 116.622 59.0257C115.736 58.2264 114.537 57.8698 113.483 57.4842C112.101 56.9784 110.703 56.527 109.294 56.1312C106.495 55.3453 103.65 54.7702 100.781 54.4514C99.2868 54.2854 97.787 54.1798 96.2857 54.1353C94.8652 54.0933 93.4421 54.1937 92.0234 54.1436C90.5112 54.0902 88.9548 53.629 87.9166 52.2918C86.8482 50.9158 86.5885 49.0368 87.3318 47.3872C88.8027 44.1227 92.7003 44.4435 95.4173 44.2042C98.5281 43.9303 101.639 43.6564 104.75 43.3825C107.659 43.1264 110.649 43.0724 113.533 42.5618C114.601 42.3727 115.832 42.0245 116.637 41.2987C117.376 40.6333 117.855 39.7608 117.796 38.8865C117.742 38.0733 117.014 37.175 116.251 36.6758C115.182 35.9755 113.92 35.7141 112.726 35.4301C106.58 33.9685 100.43 32.5259 94.2822 31.0738C92.7693 30.7164 91.2564 30.3591 89.7435 30.0018C88.728 29.7619 88.1411 28.3959 88.403 27.3087C88.6927 26.1062 89.7455 25.5391 90.764 25.7797Z" fill="#4CAF4F"/>
<path d="M171.439 95.598H184.012V123.436H171.439V95.598Z" fill="#FFAFAF"/>
<path d="M150.683 173.17L181.005 170.639C181.005 170.639 193.577 203.539 183.963 224.628L177.307 268.494L179.939 340.695H166.167L144.766 224.628L150.683 173.17Z" fill="#4CAF4F"/>
<path d="M156.599 210.017L144.766 221.766L150.683 336.824H163.995L156.599 210.017Z" fill="#4CAF4F"/>
<path d="M177.895 101.071C169.214 101.071 162.177 93.0442 162.177 83.1422C162.177 73.2401 169.214 65.213 177.895 65.213C186.576 65.213 193.614 73.2401 193.614 83.1422C193.614 93.0442 186.576 101.071 177.895 101.071Z" fill="#FFAFAF"/>
<path d="M179.778 323.56L163.541 326.486L160.489 339.772C160.489 339.772 147.306 345.431 153.658 351.58C160.011 357.73 183.478 354.55 185.334 350.139C187.189 345.728 179.778 323.56 179.778 323.56Z" fill="#4CAF4F"/>
<path d="M166.466 323.56L150.229 326.486L147.177 339.772C147.177 339.772 133.994 345.431 140.346 351.58C146.699 357.73 170.166 354.55 172.022 350.139C173.877 345.728 166.466 323.56 166.466 323.56Z" fill="#4CAF4F"/>
<path d="M121.61 170.316C123.355 170.338 125.079 169.884 126.639 168.99L133.59 168.87L154.085 169.324L163.899 165.667L161.226 156.866L134.299 159.559L126.619 160.135C125.055 159.249 123.328 158.804 121.582 158.837C117.215 158.849 113.68 161.429 113.687 164.599C113.695 167.77 117.241 170.329 121.61 170.316Z" fill="#FFAFAF"/>
<path d="M170.281 106.105H185.841L190.989 123.82L181.005 170.639L150.683 173.17L152.532 154.189C148.952 147.554 149.238 139.11 153.255 132.809L170.281 106.105Z" fill="#DEDEDE"/>
<path d="M185.072 113.697L168.802 110.511L156.969 153.346L131.824 158.407V170.639C131.824 171.061 166.238 174.435 167.15 173.17C168.062 171.904 185.072 113.697 185.072 113.697Z" fill="#DEDEDE"/>
<path d="M170.047 72.7472C168.116 76.3204 169.896 81.0268 172.275 84.2294C174.654 87.4321 177.721 90.2433 178.783 94.2622C179.735 97.8654 178.869 101.751 177.749 105.291C176.629 108.831 175.237 112.361 175.122 116.122C175.006 119.883 176.567 124.036 179.672 125.306C182.86 126.609 186.627 124.561 189.697 126.19C193.696 128.312 194.602 135.657 198.961 136.418C201.644 136.887 204.13 134.234 204.88 131.258C205.629 128.283 205.091 125.108 204.549 122.074C203.064 113.763 201.579 105.452 200.094 97.1415C198.859 90.2264 197.623 83.3112 196.387 76.396C195.65 72.2673 194.774 67.8509 192.054 65.0003C188.73 61.517 183.72 61.4342 179.209 61.643C175.066 61.8348 170.755 62.1582 167.147 64.4918C163.54 66.8255 160.89 71.7859 162.138 76.297C163.304 73.1221 166.788 71.3409 169.641 72.4606" fill="#4D4D4D"/>
</g>
<defs>
<clipPath id="clip0_10_29">
<rect width="325" height="355" fill="white" transform="matrix(-1 0 0 1 325 0)"/>
</clipPath>
</defs>
</svg>
