<svg width="62" height="55" viewBox="0 0 62 55" fill="none" xmlns="http://www.w3.org/2000/svg">
<path d="M61.8269 48.3476C61.8269 51.6666 59.1363 54.3571 55.8173 54.3571L16.5665 54.3571C15.6446 54.3571 14.8972 53.6098 14.8972 52.6878L14.8972 10.1958C14.8972 8.35193 16.3919 6.85716 18.2358 6.85716L60.1576 6.85716C61.0795 6.85716 61.8269 7.60455 61.8269 8.5265L61.8269 48.3476Z" fill="#E8F5E9"/>
<path d="M24.69 9.76526C21.338 9.76526 18.6092 12.6093 18.6092 16.086C18.6092 18.2854 19.7027 20.2273 21.354 21.3593C19.3596 22.048 17.6339 23.3352 16.3682 25.0192C15.6684 24.4633 14.8865 24.0162 14.0435 23.6958C15.3218 22.7157 16.1571 21.1414 16.1571 19.3719C16.1571 16.4232 13.8481 14.0094 11.0104 14.0094C8.17274 14.0094 5.86372 16.4232 5.86372 19.3719C5.86372 21.1424 6.69973 22.7175 7.97904 23.6976C4.59205 24.9884 2.1731 28.3681 2.1731 32.3454V35.1394C2.17344 35.3524 2.25593 35.5564 2.4022 35.7064C2.54846 35.8568 2.74637 35.9405 2.9526 35.9398H14.8211C14.8499 35.943 14.8786 35.9448 14.9074 35.9445H34.4732C34.502 35.9448 34.5311 35.943 34.5595 35.9398H46.4289C46.8556 35.938 47.2011 35.5804 47.2022 35.1394V32.3454C47.2022 28.3681 44.7874 24.9884 41.4022 23.6972C42.6815 22.7175 43.5175 21.142 43.5175 19.3715C43.5175 16.4229 41.2085 14.0091 38.3708 14.0091C35.5332 14.0091 33.2241 16.4229 33.2241 19.3715C33.2241 21.141 34.0598 22.7157 35.338 23.6955C34.4933 24.0166 33.7111 24.4651 33.0103 25.0224C31.7452 23.3374 30.0218 22.0484 28.0276 21.3593C29.6784 20.2273 30.7723 18.2854 30.7723 16.086C30.7723 12.6093 28.0421 9.76526 24.6902 9.76526H24.69ZM24.69 11.369C27.1969 11.369 29.2179 13.4703 29.2179 16.086C29.2179 18.6813 27.2284 20.7621 24.7492 20.7955C24.7295 20.7955 24.7101 20.7926 24.69 20.7926C24.6699 20.7926 24.6508 20.7955 24.6307 20.7955C22.1515 20.7626 20.1633 18.6814 20.1633 16.086C20.1633 13.4699 22.1826 11.369 24.6896 11.369H24.69ZM11.0105 15.613C12.9996 15.613 14.6044 17.2804 14.6044 19.3718C14.6044 21.4491 13.0204 23.1093 11.05 23.1319C11.0368 23.1319 11.024 23.1305 11.0105 23.1305C10.9973 23.1305 10.9845 23.1319 10.971 23.1319C9.00053 23.1093 7.41653 21.4487 7.41653 19.3718C7.41653 17.2805 9.02129 15.613 11.0104 15.613H11.0105ZM38.3703 15.613C40.3595 15.613 41.9642 17.2804 41.9642 19.3718C41.9642 21.4491 40.3802 23.1093 38.4098 23.1319C38.3966 23.1319 38.3838 23.1305 38.3703 23.1305C38.3571 23.1305 38.3443 23.1319 38.3308 23.1319C36.3604 23.1093 34.7764 21.4487 34.7764 19.3718C34.7764 17.2805 36.3811 15.613 38.3703 15.613H38.3703ZM24.6305 22.3991C24.6503 22.3995 24.6697 22.402 24.6898 22.402C24.7095 22.402 24.729 22.3991 24.7491 22.3991C29.721 22.4321 33.7001 26.577 33.7001 31.7657L33.6998 34.3403H15.6805V31.7657C15.6805 26.5766 19.6585 22.4321 24.6298 22.3991H24.6305ZM10.951 24.7374C10.9708 24.7378 10.9902 24.7403 11.0103 24.7403C11.0304 24.7403 11.0495 24.7374 11.0696 24.7374C12.7513 24.7514 14.286 25.3503 15.5081 26.3522C14.6336 27.9503 14.1279 29.7948 14.1279 31.7662V34.3346H3.72524V32.3454C3.72524 28.1284 6.93548 24.7703 10.9509 24.7371L10.951 24.7374ZM38.3109 24.7374C38.331 24.7378 38.35 24.7403 38.3701 24.7403C38.3903 24.7403 38.4093 24.7374 38.4294 24.7374C42.4448 24.7704 45.655 28.1289 45.655 32.3457V34.3346H35.247L35.2467 31.7662C35.2467 29.7959 34.7424 27.9527 33.8696 26.3551C35.092 25.3517 36.6279 24.7514 38.311 24.7374H38.3109Z" fill="#103E13"/>
</svg>
