<svg width="62" height="55" viewBox="0 0 62 55" fill="none" xmlns="http://www.w3.org/2000/svg">
<path d="M61.8271 48.3476C61.8271 51.6666 59.1366 54.3571 55.8176 54.3571L16.5657 54.3571C15.6437 54.3571 14.8963 53.6098 14.8963 52.6878L14.8964 10.1958C14.8964 8.35193 16.3911 6.85716 18.235 6.85716L60.1578 6.85716C61.0798 6.85716 61.8272 7.60455 61.8272 8.5265L61.8271 48.3476Z" fill="#E8F5E9"/>
<path d="M26.0817 18.5005C25.7889 18.5005 25.5508 18.255 25.5508 17.9521V17.0202C25.5508 16.7178 25.7885 16.4719 26.0817 16.4719C26.3746 16.4719 26.6127 16.7174 26.6127 17.0202V17.9521C26.6127 18.255 26.3746 18.5005 26.0817 18.5005Z" fill="#103E13"/>
<path d="M23.8493 18.5005C23.5564 18.5005 23.3184 18.255 23.3184 17.9521V17.0202C23.3184 16.7178 23.5561 16.4719 23.8493 16.4719C24.1422 16.4719 24.3803 16.7174 24.3803 17.0202V17.9521C24.3799 18.255 24.1426 18.5005 23.8493 18.5005Z" fill="#103E13"/>
<path d="M21.6174 18.5005C21.3245 18.5005 21.0864 18.255 21.0864 17.9521V17.0202C21.0864 16.7178 21.3241 16.4719 21.6174 16.4719C21.9102 16.4719 22.1483 16.7174 22.1483 17.0202V17.9521C22.1483 18.255 21.9106 18.5005 21.6174 18.5005Z" fill="#103E13"/>
<path d="M26.0817 22.3113C25.7889 22.3113 25.5508 22.0658 25.5508 21.7629V20.8314C25.5508 20.529 25.7885 20.2831 26.0817 20.2831C26.3746 20.2831 26.6127 20.5286 26.6127 20.8314V21.7629C26.6127 22.0658 26.3746 22.3113 26.0817 22.3113Z" fill="#103E13"/>
<path d="M23.8493 22.3113C23.5564 22.3113 23.3184 22.0658 23.3184 21.7629V20.8314C23.3184 20.529 23.5561 20.2831 23.8493 20.2831C24.1422 20.2831 24.3803 20.5286 24.3803 20.8314V21.7629C24.3799 22.0658 24.1426 22.3113 23.8493 22.3113Z" fill="#103E13"/>
<path d="M21.6174 22.3113C21.3245 22.3113 21.0864 22.0658 21.0864 21.7629V20.8314C21.0864 20.529 21.3241 20.2831 21.6174 20.2831C21.9102 20.2831 22.1483 20.5286 22.1483 20.8314V21.7629C22.1483 22.0658 21.9106 22.3113 21.6174 22.3113Z" fill="#103E13"/>
<path d="M26.0817 26.1223C25.7889 26.1223 25.5508 25.8768 25.5508 25.5739V24.642C25.5508 24.3396 25.7885 24.0937 26.0817 24.0937C26.3746 24.0937 26.6127 24.3392 26.6127 24.642V25.5739C26.6127 25.8768 26.3746 26.1223 26.0817 26.1223Z" fill="#103E13"/>
<path d="M23.8493 26.1223C23.5564 26.1223 23.3184 25.8768 23.3184 25.5739V24.642C23.3184 24.3396 23.5561 24.0937 23.8493 24.0937C24.1422 24.0937 24.3803 24.3392 24.3803 24.642V25.5739C24.3799 25.8768 24.1426 26.1223 23.8493 26.1223Z" fill="#103E13"/>
<path d="M21.6174 26.1223C21.3245 26.1223 21.0864 25.8768 21.0864 25.5739V24.642C21.0864 24.3396 21.3241 24.0937 21.6174 24.0937C21.9102 24.0937 22.1483 24.3392 22.1483 24.642V25.5739C22.1483 25.8768 21.9106 26.1223 21.6174 26.1223Z" fill="#103E13"/>
<path d="M26.0817 29.9324C25.7889 29.9324 25.5508 29.6869 25.5508 29.384V28.4521C25.5508 28.1497 25.7885 27.9038 26.0817 27.9038C26.3746 27.9038 26.6127 28.1493 26.6127 28.4521V29.384C26.6127 29.6869 26.3746 29.9324 26.0817 29.9324Z" fill="#103E13"/>
<path d="M23.8493 29.9324C23.5564 29.9324 23.3184 29.6869 23.3184 29.384V28.4521C23.3184 28.1497 23.5561 27.9038 23.8493 27.9038C24.1422 27.9038 24.3803 28.1493 24.3803 28.4521V29.384C24.3799 29.6869 24.1426 29.9324 23.8493 29.9324Z" fill="#103E13"/>
<path d="M21.6174 29.9324C21.3245 29.9324 21.0864 29.6869 21.0864 29.384V28.4521C21.0864 28.1497 21.3241 27.9038 21.6174 27.9038C21.9102 27.9038 22.1483 28.1493 22.1483 28.4521V29.384C22.1483 29.6869 21.9106 29.9324 21.6174 29.9324Z" fill="#103E13"/>
<path d="M26.0817 33.7432C25.7889 33.7432 25.5508 33.4977 25.5508 33.1948V32.2633C25.5508 31.9609 25.7885 31.715 26.0817 31.715C26.3746 31.715 26.6127 31.9605 26.6127 32.2633V33.1948C26.6127 33.4973 26.3746 33.7432 26.0817 33.7432Z" fill="#103E13"/>
<path d="M23.8493 33.7432C23.5564 33.7432 23.3184 33.4977 23.3184 33.1948V32.2633C23.3184 31.9609 23.5561 31.715 23.8493 31.715C24.1422 31.715 24.3803 31.9605 24.3803 32.2633V33.1948C24.3799 33.4973 24.1426 33.7432 23.8493 33.7432Z" fill="#103E13"/>
<path d="M21.6174 33.7432C21.3245 33.7432 21.0864 33.4977 21.0864 33.1948L21.0868 32.2633C21.0868 31.9609 21.3245 31.715 21.6177 31.715C21.9106 31.715 22.1487 31.9605 22.1487 32.2633V33.1948C22.1483 33.4973 21.9106 33.7432 21.6174 33.7432V33.7432Z" fill="#103E13"/>
<path d="M6.44966 37.5355C6.44966 37.838 6.68737 38.0839 6.98062 38.0839H39.3138C39.6067 38.0839 39.8448 37.8384 39.8448 37.5355C39.8448 37.233 39.6071 36.9872 39.3138 36.9872H38.3323V21.2431C38.3323 20.9406 38.0946 20.6947 37.8014 20.6947L29.1326 20.6951V9.3444C29.1326 9.15244 29.0356 8.97501 28.8771 8.87558C28.719 8.77578 28.5213 8.76966 28.3569 8.85799L18.5011 14.1576C18.3252 14.2521 18.2156 14.4394 18.2156 14.644V24.5586H8.67738C8.38451 24.5586 8.14643 24.8041 8.14643 25.107V36.9873H6.97943C6.68656 36.9869 6.44922 37.2324 6.44922 37.5352L6.44966 37.5355ZM29.1328 29.0001H37.271V36.9876L29.1328 36.9872V29.0001ZM29.1328 25.1896H37.271V27.9038L29.1328 27.9035V25.1896ZM29.1328 21.7912H37.271V24.0937H29.1328V21.7912ZM19.277 14.977L28.0705 10.2483V36.9867H19.277V14.977ZM11.833 32.6075C11.833 31.4695 12.7061 30.5433 13.7794 30.5433C14.8528 30.5433 15.7262 31.4691 15.7262 32.6075V36.9874H11.833V32.6075ZM9.2083 25.6551H18.2155V36.9872H16.7881V32.6073C16.7881 30.8647 15.4389 29.4468 13.7794 29.4468C12.1207 29.4468 10.7715 30.8643 10.7715 32.6073V36.9872H9.2083V25.6551Z" fill="#103E13"/>
</svg>
