<svg width="62" height="55" viewBox="0 0 62 55" fill="none" xmlns="http://www.w3.org/2000/svg">
<path d="M61.8269 41.8279C61.8269 48.7476 56.2174 54.3571 49.2977 54.3571L18.3769 54.3571C16.4548 54.3571 14.8966 52.7989 14.8966 50.8768L14.8966 13.8178C14.8966 9.97352 18.013 6.85711 21.8573 6.85711L58.3466 6.85711C60.2687 6.85711 61.8269 8.41532 61.8269 10.3375L61.8269 41.8279Z" fill="#E8F5E9"/>
<path d="M27.3909 22.9923C27.1649 22.9923 26.955 22.9281 26.7686 22.8249V22.8276C26.7686 23.1949 26.6304 23.5398 26.3796 23.7981C26.1289 24.057 25.7952 24.1998 25.44 24.1998C25.2107 24.1998 24.9982 24.134 24.8098 24.028C24.7908 24.364 24.6607 24.678 24.4288 24.9178C24.178 25.1768 23.8443 25.3196 23.4889 25.3196C22.7828 25.3196 22.2094 24.7463 22.1681 24.0278C21.9496 24.1498 21.7026 24.2137 21.4478 24.1968C20.7532 24.1498 20.2093 23.5299 20.2093 22.7854V16.6136L19.5288 17.8311C19.2696 18.2968 18.7845 18.5859 18.2621 18.5859C18.0076 18.5859 17.7562 18.517 17.5335 18.3852C17.2562 18.2192 17.0579 17.9526 16.9754 17.6338C16.8925 17.3147 16.9354 16.981 17.0957 16.6951C17.0959 16.6951 19.322 12.7136 19.4578 12.469C19.474 12.4323 19.52 12.3256 19.5591 12.2347C19.5965 12.1479 19.6286 12.0589 19.6593 11.9693C20.3306 10.0119 21.9929 8.79594 23.9977 8.79594C26.6011 8.79594 28.7191 11.1679 28.7191 14.0836L28.7194 21.6199C28.7194 21.9867 28.5814 22.3313 28.3308 22.5906C28.0801 22.8496 27.7464 22.9923 27.3908 22.9923L27.3909 22.9923ZM23.9978 9.52506C22.2751 9.52506 20.9021 10.53 20.3247 12.2132C20.2878 12.3201 20.2493 12.4269 20.2044 12.5311C20.0742 12.8328 20.0742 12.8328 20.0375 12.8762L20.0326 12.8718C19.8508 13.2261 19.3108 14.1919 17.7069 17.06C17.641 17.1776 17.6236 17.3142 17.6572 17.4448C17.6912 17.5755 17.7728 17.6855 17.8858 17.7529C18.2366 17.961 18.7169 17.8267 18.9168 17.467L20.2566 15.0712C20.3367 14.9284 20.4985 14.8583 20.6538 14.9017C20.8081 14.9444 20.9154 15.089 20.9154 15.2539V22.7856C20.9154 23.141 21.175 23.4477 21.4941 23.4694C21.6781 23.4794 21.8497 23.4157 21.9786 23.2828C22.0958 23.1617 22.1604 23.0005 22.1604 22.828V17.9022C22.1604 17.7008 22.3185 17.5375 22.5135 17.5375C22.7086 17.5375 22.8667 17.7006 22.8667 17.9022L22.8665 23.9477C22.8665 24.3021 23.1458 24.5906 23.4889 24.5906C23.6557 24.5906 23.8122 24.5239 23.9297 24.4029C24.0469 24.2816 24.1114 24.1199 24.1114 23.9477V17.9022C24.1114 17.7008 24.2693 17.5375 24.4646 17.5375C24.6596 17.5375 24.8177 17.7006 24.8177 17.9022L24.8175 22.7714V22.828C24.8175 23.1823 25.0968 23.4707 25.4402 23.4707C25.6067 23.4707 25.7629 23.4038 25.881 23.2823C25.9982 23.1615 26.0627 23.0002 26.0627 22.8278V17.902C26.0627 17.7005 26.2206 17.5372 26.4159 17.5372C26.6109 17.5372 26.769 17.7003 26.769 17.902L26.7686 21.6201C26.7686 21.9748 27.0479 22.2632 27.3908 22.2632C27.5578 22.2632 27.7139 22.1963 27.8311 22.0755C27.9488 21.954 28.0131 21.7923 28.0131 21.6201L28.0133 14.0837C28.0133 11.5704 26.212 9.52513 23.9977 9.52513L23.9978 9.52506Z" fill="#103E13"/>
<path d="M13.5159 28.2303L18.6405 25.0552C19.2583 24.672 20.0533 24.8349 20.4496 25.4261C20.5942 25.6415 20.668 25.8925 20.6795 26.1481C20.8706 26.0451 21.0785 25.9891 21.2901 25.9891C21.3984 25.9891 21.5072 26.0031 21.6147 26.0307C21.959 26.1195 22.2491 26.3418 22.4316 26.656C22.6143 26.9707 22.6676 27.3395 22.5815 27.6947C22.5021 28.0234 22.3086 28.3 22.0395 28.4898C22.2277 28.6044 22.39 28.7608 22.5055 28.96C22.6881 29.2747 22.7414 29.6434 22.6556 29.999C22.5696 30.3541 22.3544 30.6537 22.0497 30.8426L22.0479 30.8438C22.2328 30.9582 22.3922 31.113 22.5064 31.3092C22.6892 31.6239 22.7425 31.9928 22.6565 32.3484C22.5703 32.7037 22.3551 33.0034 22.0508 33.192L15.7937 37.0689C14.6259 37.7922 13.2758 38.0418 11.9928 37.7712C10.6983 37.4981 9.62623 36.7296 8.97437 35.6072C7.94276 33.8315 8.09736 31.7336 9.37705 30.1323C9.43565 30.0593 9.49337 29.9848 9.54578 29.9076C9.60128 29.8261 9.66607 29.7302 9.68819 29.6973C9.82064 29.4529 11.982 25.431 11.9818 25.4315C12.2001 25.0247 12.6092 24.7945 13.0311 24.7947C13.2279 24.7947 13.4276 24.8447 13.6118 24.9502C13.8342 25.0786 14.0211 25.2656 14.1518 25.4911C14.4205 25.9535 14.43 26.5323 14.177 27.0007L13.5159 28.2303ZM13.5467 25.866C13.4781 25.7479 13.3839 25.6538 13.2687 25.5871C13.0306 25.451 12.7307 25.5396 12.5996 25.7847C11.053 28.6624 10.5258 29.643 10.3223 29.992L10.327 29.9932C10.3099 30.0516 10.3099 30.0516 10.1237 30.3264C10.0605 30.4193 9.99173 30.5086 9.92163 30.5966C8.82124 31.9735 8.69347 33.7063 9.57953 35.2321C10.1284 36.1772 11.0355 36.8251 12.1338 37.0567C13.2441 37.2899 14.4144 37.0729 15.4301 36.4435L21.6878 32.5664C21.8306 32.478 21.9315 32.3376 21.9717 32.1711C22.012 32.0048 21.987 31.8319 21.9012 31.6844C21.7247 31.3806 21.3415 31.2808 21.0474 31.4638L17.9604 33.3765C17.7932 33.4802 17.576 33.4245 17.4759 33.2516C17.3755 33.0789 17.4296 32.8549 17.5968 32.7512L20.6841 30.8385L21.6867 30.2173C21.8295 30.1286 21.9306 29.9882 21.9708 29.8221C22.0111 29.6556 21.9861 29.4825 21.9003 29.3352C21.7236 29.0312 21.3404 28.9324 21.0465 29.1146L16.9566 31.6486C16.789 31.7525 16.5725 31.6963 16.4721 31.5236C16.3717 31.351 16.4261 31.1269 16.5931 31.0232L21.6126 27.9133C21.7555 27.8247 21.8563 27.6845 21.8965 27.518C21.9368 27.3517 21.9118 27.1788 21.8262 27.0313C21.7406 26.884 21.6046 26.7799 21.4434 26.7383C21.2814 26.6967 21.1146 26.7225 20.9722 26.8107L20.043 27.3865C20.0428 27.3865 20.0428 27.3867 20.0426 27.3867H20.0423L15.9527 29.9206C15.7851 30.0248 15.5684 29.9686 15.4682 29.7957C15.3678 29.623 15.4222 29.399 15.5892 29.2953L19.679 26.7614C19.8219 26.6728 19.9229 26.5323 19.9632 26.3663C20.0074 26.184 19.9738 25.9976 19.869 25.8414C19.6872 25.5699 19.2985 25.4977 19.0037 25.6806L12.7505 29.555C12.6136 29.6395 12.4383 29.619 12.3235 29.5045C12.2085 29.3899 12.1826 29.2097 12.26 29.0656L13.5603 26.646C13.6908 26.4042 13.6857 26.1054 13.5466 25.8661L13.5467 25.866Z" fill="#103E13"/>
<path d="M38.0032 35.607C37.3515 36.7295 36.2797 37.4978 34.985 37.771C33.7018 38.0412 32.3522 37.792 31.1841 37.0687L24.9264 33.1916C24.6219 33.003 24.4065 32.7033 24.3203 32.3475C24.2347 31.9923 24.2882 31.6235 24.4707 31.3092C24.5846 31.1128 24.7442 30.958 24.9293 30.8435L24.9275 30.8424C24.623 30.6538 24.4077 30.3541 24.3219 29.9987C24.2356 29.6434 24.2891 29.2743 24.4718 28.9596C24.5894 28.7575 24.7506 28.5994 24.9346 28.4873C24.6675 28.2975 24.4751 28.0218 24.3959 27.6948C24.3097 27.3392 24.3632 26.9703 24.5459 26.6561C24.7283 26.3416 25.0187 26.1193 25.3628 26.0305C25.4702 26.0027 25.5792 25.989 25.6872 25.989C25.899 25.9892 26.1069 26.0447 26.2979 26.1479C26.3097 25.8923 26.3833 25.6414 26.5279 25.426C26.9244 24.8352 27.7187 24.6716 28.3375 25.0551L33.4618 28.2296L32.8013 27.0009C32.5479 26.5318 32.5572 25.9531 32.8258 25.4903C32.9567 25.2652 33.1438 25.0781 33.3674 24.9486C33.5512 24.8436 33.7502 24.7938 33.9465 24.7938C34.3682 24.794 34.7778 25.0238 34.9958 25.4305C35.7556 26.8445 37.1894 29.5111 37.2903 29.6973C37.3117 29.7295 37.3765 29.8254 37.432 29.9069C37.4849 29.9843 37.5419 30.0583 37.6009 30.1319C38.8805 31.7338 39.0348 33.8315 38.0032 35.607L38.0032 35.607ZM37.0561 30.5967C36.9858 30.5088 36.9168 30.419 36.854 30.3265C36.663 30.0465 36.6581 30.0392 36.6437 29.9659C36.4204 29.5843 35.8755 28.5712 34.3778 25.7843C34.2464 25.5397 33.9479 25.4504 33.7102 25.5861C33.5932 25.6537 33.4992 25.748 33.4307 25.8661C33.2918 26.1052 33.2865 26.4039 33.4176 26.6465L34.7175 29.0653C34.7951 29.2097 34.7692 29.3897 34.6544 29.5043C34.5399 29.6192 34.3647 29.6393 34.2272 29.5548L27.974 25.6804C27.6793 25.4979 27.2907 25.5694 27.1085 25.8412C27.0037 25.9974 26.9703 26.1838 27.0141 26.3658C27.0543 26.5321 27.1554 26.6723 27.2985 26.7609C27.2989 26.7611 27.2991 26.7616 27.2996 26.7618L31.3881 29.2951C31.5553 29.3988 31.6095 29.6226 31.5091 29.7955C31.4087 29.9679 31.1922 30.0243 31.0246 29.9204L26.0051 26.8105C25.8627 26.7223 25.695 26.6963 25.5341 26.7381C25.3726 26.7797 25.2369 26.8838 25.1513 27.0316C25.0655 27.1789 25.0407 27.3518 25.0805 27.518C25.1208 27.6843 25.2218 27.8247 25.3647 27.9134L26.3414 28.5184L30.384 31.0233C30.5511 31.127 30.6053 31.3508 30.5049 31.5237C30.4045 31.6961 30.188 31.7523 30.0204 31.6486L25.931 29.1147C25.6369 28.932 25.2539 29.0311 25.077 29.3353C24.9912 29.4828 24.9664 29.6557 25.0062 29.822C25.0465 29.9883 25.1475 30.1285 25.2906 30.2173L26.2932 30.8385L29.38 32.7513C29.5472 32.855 29.6014 33.0788 29.501 33.2517C29.4006 33.4241 29.1841 33.4808 29.0165 33.3766L25.9297 31.4639C25.7873 31.3757 25.6203 31.3497 25.4584 31.3915C25.2974 31.433 25.1612 31.5372 25.0757 31.6845C24.9901 31.832 24.9651 32.0051 25.0049 32.1712C25.0451 32.3374 25.1462 32.4777 25.2893 32.5665L31.547 36.4436C32.5624 37.0728 33.7335 37.2906 34.8432 37.0568C35.9413 36.8252 36.8485 36.1772 37.3973 35.2322C38.2843 33.7061 38.1567 31.9731 37.0565 30.5966L37.0561 30.5967Z" fill="#103E13"/>
</svg>
